<svg width="40" height="40" viewBox="0 0 40 40" fill="none" xmlns="http://www.w3.org/2000/svg">
<circle cx="20" cy="20" r="20" fill="#57BF91"/>
<path d="M27.5 16C28.8807 16 30 14.8807 30 13.5C30 12.1193 28.8807 11 27.5 11C26.1193 11 25 12.1193 25 13.5C25 14.8807 26.1193 16 27.5 16Z" fill="white"/>
<path d="M27.5 16C28.8807 16 30 14.8807 30 13.5C30 12.1193 28.8807 11 27.5 11C26.1193 11 25 12.1193 25 13.5C25 14.8807 26.1193 16 27.5 16Z" fill="white"/>
<path d="M28.72 17.31C28.02 17.53 27.25 17.57 26.45 17.37C25.11 17.02 24.02 15.95 23.65 14.61C23.47 13.96 23.46 13.32 23.57 12.74C23.7 12.1 23.25 11.5 22.61 11.5H15C12 11.5 10 13 10 16.5V23.5C10 27 12 28.5 15 28.5H25C28 28.5 30 27 30 23.5V18.26C30 17.6 29.36 17.1 28.72 17.31ZM23.52 19.15L22.34 20.09C21.68 20.62 20.84 20.88 20 20.88C19.16 20.88 18.31 20.62 17.66 20.09L14.53 17.59C14.21 17.33 14.16 16.85 14.41 16.53C14.67 16.21 15.14 16.15 15.46 16.41L18.59 18.91C19.35 19.52 20.64 19.52 21.4 18.91L22.58 17.97C22.9 17.71 23.38 17.76 23.63 18.09C23.89 18.41 23.84 18.89 23.52 19.15Z" fill="white"/>
</svg>
