<svg width="40" height="40" viewBox="0 0 40 40" fill="none" xmlns="http://www.w3.org/2000/svg">
<rect width="40" height="40" rx="20" fill="#57BF91"/>
<path d="M20 9C15.5888 9 12 12.4305 12 16.6471C12 21.9469 20.0079 31 20.0079 31C20.0079 31 28 21.6863 28 16.6471C28 12.4305 24.4113 9 20 9ZM22.4138 18.8862C21.7482 19.5222 20.8742 19.8403 20 19.8403C19.126 19.8403 18.2517 19.5222 17.5864 18.8862C16.2554 17.614 16.2554 15.544 17.5864 14.2717C18.2309 13.6554 19.0882 13.3159 20 13.3159C20.9118 13.3159 21.769 13.6555 22.4138 14.2717C23.7448 15.544 23.7448 17.614 22.4138 18.8862Z" fill="white"/>
</svg>
