<svg width="3043" height="2353" viewBox="0 0 3043 2353" fill="none" xmlns="http://www.w3.org/2000/svg">
<path d="M1620.54 251.02L1552.77 161.84V38.38C1552.77 17.18 1535.58 0 1514.39 0H589.04C567.84 0 550.66 17.19 550.66 38.38V655.23C550.66 676.43 567.85 693.61 589.04 693.61H1514.39C1535.59 693.61 1552.77 676.42 1552.77 655.23V233.07L1558 235.67L1557.17 238.82L1583.01 263.01H1614.4C1614.57 263.01 1614.74 263.01 1614.91 263.01H1615.67V262.95C1620.78 262.22 1624.3 255.95 1620.55 251.01L1620.54 251.02Z" fill="#6389E2"/>
<path d="M1579.38 262.21L1520.86 233.08V655.24C1520.86 676.44 1503.68 693.62 1482.48 693.62H557.12C545.46 693.62 535.02 688.43 527.99 680.23C522.23 673.52 518.74 664.78 518.74 655.24V38.39C518.74 17.19 535.92 0 557.12 0H1482.48C1493.37 0 1503.2 4.54001 1510.19 11.82C1516.79 18.72 1520.86 28.08 1520.86 38.39V161.84L1588.64 251.03C1593.41 257.3 1586.44 265.73 1579.38 262.21Z" fill="#84A3E8"/>
<path d="M1579.38 262.21L1520.86 233.08V655.24C1520.86 676.44 1503.68 693.62 1482.48 693.62H557.12C545.46 693.62 535.02 688.43 527.99 680.23L1510.18 11.8301H1510.19C1516.79 18.7201 1520.86 28.0801 1520.86 38.3901V161.84L1588.64 251.03C1593.41 257.3 1586.44 265.73 1579.38 262.21Z" fill="#90ABEA"/>
<path d="M1171.07 78.2701H581.77C576.84 78.2701 572.8 74.2301 572.8 69.3001C572.8 64.3701 576.84 60.3301 581.77 60.3301H1171.07C1176 60.3301 1180.04 64.3701 1180.04 69.3001C1180.04 74.2301 1176 78.2701 1171.07 78.2701Z" fill="#6389E2"/>
<path d="M864.701 226.72H586.361C578.877 226.72 572.811 232.787 572.811 240.27V306.63C572.811 314.114 578.877 320.18 586.361 320.18H864.701C872.184 320.18 878.251 314.114 878.251 306.63V240.27C878.251 232.787 872.184 226.72 864.701 226.72Z" fill="#6389E2"/>
<path d="M1082.69 156.55H581.781C576.851 156.55 572.811 152.51 572.811 147.58C572.811 142.65 576.851 138.61 581.781 138.61H1082.69C1087.62 138.61 1091.66 142.65 1091.66 147.58C1091.66 152.51 1087.62 156.55 1082.69 156.55Z" fill="#6389E2"/>
<path d="M990.81 364.01H634.92C629.99 364.01 625.95 359.97 625.95 355.04C625.95 350.11 629.99 346.07 634.92 346.07H990.81C995.74 346.07 999.78 350.11 999.78 355.04C999.78 359.97 995.74 364.01 990.81 364.01Z" fill="#6389E2"/>
<path d="M684.28 177.94L664.06 206.45C663.16 207.72 661.39 208.02 660.12 207.12C658.85 206.22 658.55 204.45 659.45 203.18L679.67 174.67C680.57 173.4 682.34 173.1 683.61 174C684.88 174.9 685.18 176.67 684.28 177.94Z" fill="#6389E2"/>
<path d="M646.601 198.34H581.781C576.851 198.34 572.811 194.3 572.811 189.37C572.811 184.44 576.851 180.4 581.781 180.4H646.601C651.531 180.4 655.571 184.44 655.571 189.37C655.571 194.3 651.531 198.34 646.601 198.34Z" fill="#6389E2"/>
<path d="M815.01 198.34H702.92C697.99 198.34 693.95 194.3 693.95 189.37C693.95 184.44 697.99 180.4 702.92 180.4H815.01C819.94 180.4 823.98 184.44 823.98 189.37C823.98 194.3 819.94 198.34 815.01 198.34Z" fill="#6389E2"/>
<path d="M581.781 96.8999H962.641C967.591 96.8999 971.611 100.92 971.611 105.87C971.611 110.82 967.591 114.84 962.641 114.84H581.781C576.831 114.84 572.811 110.82 572.811 105.87C572.811 100.92 576.831 96.8999 581.781 96.8999Z" fill="#6389E2"/>
<path d="M590.17 370.06C598.466 370.06 605.19 363.335 605.19 355.04C605.19 346.745 598.466 340.02 590.17 340.02C581.875 340.02 575.15 346.745 575.15 355.04C575.15 363.335 581.875 370.06 590.17 370.06Z" fill="#6389E2"/>
<path d="M839.4 425.49H634.92C629.99 425.49 625.95 421.45 625.95 416.52C625.95 411.59 629.99 407.55 634.92 407.55H839.4C844.33 407.55 848.37 411.59 848.37 416.52C848.37 421.45 844.33 425.49 839.4 425.49Z" fill="#6389E2"/>
<path d="M590.17 431.55C598.466 431.55 605.19 424.826 605.19 416.53C605.19 408.235 598.466 401.51 590.17 401.51C581.875 401.51 575.15 408.235 575.15 416.53C575.15 424.826 581.875 431.55 590.17 431.55Z" fill="#6389E2"/>
<path d="M698.78 486.98H634.92C629.99 486.98 625.95 482.94 625.95 478.01C625.95 473.08 629.99 469.04 634.92 469.04H698.78C703.71 469.04 707.75 473.08 707.75 478.01C707.75 482.94 703.71 486.98 698.78 486.98Z" fill="#6389E2"/>
<path d="M590.17 493.03C598.466 493.03 605.19 486.306 605.19 478.01C605.19 469.715 598.466 462.99 590.17 462.99C581.875 462.99 575.15 469.715 575.15 478.01C575.15 486.306 581.875 493.03 590.17 493.03Z" fill="#6389E2"/>
<path d="M1161.18 71.8599H571.88C566.95 71.8599 562.91 67.8199 562.91 62.8899C562.91 57.9599 566.95 53.9199 571.88 53.9199H1161.18C1166.11 53.9199 1170.15 57.9599 1170.15 62.8899C1170.15 67.8199 1166.11 71.8599 1161.18 71.8599Z" fill="white"/>
<path d="M854.8 220.31H576.46C568.977 220.31 562.91 226.377 562.91 233.86V300.22C562.91 307.704 568.977 313.77 576.46 313.77H854.8C862.284 313.77 868.35 307.704 868.35 300.22V233.86C868.35 226.377 862.284 220.31 854.8 220.31Z" fill="white"/>
<path d="M1072.79 150.14H571.88C566.95 150.14 562.91 146.1 562.91 141.17C562.91 136.24 566.95 132.2 571.88 132.2H1072.79C1077.72 132.2 1081.76 136.24 1081.76 141.17C1081.76 146.1 1077.72 150.14 1072.79 150.14Z" fill="#CEDAF6"/>
<path d="M980.91 357.59H625.02C620.09 357.59 616.05 353.55 616.05 348.62C616.05 343.69 620.09 339.65 625.02 339.65H980.91C985.84 339.65 989.88 343.69 989.88 348.62C989.88 353.55 985.84 357.59 980.91 357.59Z" fill="#9BB3EC"/>
<path d="M674.38 171.52L654.16 200.03C653.26 201.3 651.49 201.6 650.22 200.7C648.95 199.8 648.65 198.03 649.55 196.76L669.77 168.25C670.67 166.98 672.44 166.68 673.71 167.58C674.98 168.48 675.28 170.25 674.38 171.52Z" fill="white"/>
<path d="M636.7 191.92H571.88C566.95 191.92 562.91 187.88 562.91 182.95C562.91 178.02 566.95 173.98 571.88 173.98H636.7C641.63 173.98 645.67 178.02 645.67 182.95C645.67 187.88 641.63 191.92 636.7 191.92Z" fill="white"/>
<path d="M805.11 191.92H693.02C688.09 191.92 684.05 187.88 684.05 182.95C684.05 178.02 688.09 173.98 693.02 173.98H805.11C810.04 173.98 814.08 178.02 814.08 182.95C814.08 187.88 810.04 191.92 805.11 191.92Z" fill="white"/>
<path d="M571.88 90.4897H952.74C957.69 90.4897 961.71 94.5097 961.71 99.4597C961.71 104.41 957.69 108.43 952.74 108.43H571.88C566.93 108.43 562.91 104.41 562.91 99.4597C562.91 94.5097 566.93 90.4897 571.88 90.4897Z" fill="white"/>
<path d="M580.27 363.65C588.565 363.65 595.29 356.925 595.29 348.63C595.29 340.335 588.565 333.61 580.27 333.61C571.975 333.61 565.25 340.335 565.25 348.63C565.25 356.925 571.975 363.65 580.27 363.65Z" fill="#9BB3EC"/>
<path d="M829.51 419.08H625.03C620.1 419.08 616.06 415.04 616.06 410.11C616.06 405.18 620.1 401.14 625.03 401.14H829.51C834.44 401.14 838.48 405.18 838.48 410.11C838.48 415.04 834.44 419.08 829.51 419.08Z" fill="white"/>
<path d="M580.27 425.13C588.565 425.13 595.29 418.405 595.29 410.11C595.29 401.814 588.565 395.09 580.27 395.09C571.975 395.09 565.25 401.814 565.25 410.11C565.25 418.405 571.975 425.13 580.27 425.13Z" fill="white"/>
<path d="M688.89 480.57H625.03C620.1 480.57 616.06 476.53 616.06 471.6C616.06 466.67 620.1 462.63 625.03 462.63H688.89C693.82 462.63 697.86 466.67 697.86 471.6C697.86 476.53 693.82 480.57 688.89 480.57Z" fill="white"/>
<path d="M580.27 486.62C588.565 486.62 595.29 479.895 595.29 471.6C595.29 463.305 588.565 456.58 580.27 456.58C571.975 456.58 565.25 463.305 565.25 471.6C565.25 479.895 571.975 486.62 580.27 486.62Z" fill="white"/>
<mask id="mask0_248_3039" style="mask-type:luminance" maskUnits="userSpaceOnUse" x="518" y="0" width="1073" height="694">
<path d="M1579.38 262.21L1520.86 233.08V655.24C1520.86 676.44 1503.68 693.62 1482.48 693.62H557.12C545.46 693.62 535.02 688.43 527.99 680.23C522.23 673.52 518.74 664.78 518.74 655.24V38.39C518.74 17.19 535.92 0 557.12 0H1482.48C1493.37 0 1503.2 4.54001 1510.19 11.82C1516.79 18.72 1520.86 28.08 1520.86 38.39V161.84L1588.64 251.03C1593.41 257.3 1586.44 265.73 1579.38 262.21Z" fill="white"/>
</mask>
<g mask="url(#mask0_248_3039)">
<path d="M1210.9 987.51L1157.99 975.67L1069.69 955.89L974.76 655.6L977.65 385.51L1071.6 382.66L1074.05 386.85L1169.3 550.19L1199.42 724.17L1210.9 987.51Z" fill="white"/>
<path d="M1157.99 975.67C1184.23 703.6 1074.05 386.86 1074.05 386.86L1169.31 550.19L1199.43 724.18L1210.9 987.52L1157.99 975.67Z" fill="#EBF0FB"/>
<path d="M1420.33 619.38C1420.33 619.38 1309.81 780.14 1215.1 663.39C1215.1 663.39 1249.57 913.4 1267.14 995.74L1190.03 997.14C1189.29 992.46 1188.51 987.52 1187.73 982.33C1178.14 919.71 1165.41 822.74 1162.55 734.18C1158.61 611.62 1097.23 447.18 1077.59 397.48C1073.84 387.96 1071.61 382.65 1071.61 382.65C1071.61 382.65 1128.08 385.07 1159.29 412.98C1195.77 445.6 1285.97 547.72 1285.97 547.72L1420.33 619.37V619.38Z" fill="#8DA9EA"/>
<path d="M1098.21 406.47C1102.73 411.22 1107.25 415.97 1111.77 420.73C1118.98 428.3 1126.18 435.88 1133.39 443.45C1135.04 445.19 1136.7 446.92 1138.35 448.66C1138.04 446.24 1137.73 443.82 1137.41 441.41C1132.02 450.14 1126.63 458.88 1121.25 467.61C1120.49 468.85 1119.72 470.08 1118.96 471.32C1117.91 473.01 1117.78 475.68 1118.96 477.36C1123.84 484.28 1128.71 491.21 1133.59 498.13C1141.31 509.09 1149.03 520.05 1156.74 531.01C1158.52 533.54 1160.31 536.08 1162.09 538.61C1161.82 537.6 1161.55 536.6 1161.27 535.59C1161.4 539.55 1161.52 543.51 1161.65 547.48C1161.95 556.99 1162.25 566.51 1162.55 576.02C1162.91 587.48 1163.28 598.95 1163.64 610.41C1163.95 620.36 1164.27 630.31 1164.58 640.26C1164.73 645.09 1164.8 649.94 1165.04 654.77C1165.04 654.84 1165.04 654.91 1165.04 654.97C1165.14 658.1 1167.72 661.1 1171.03 660.96C1174.19 660.82 1177.12 658.33 1177.02 654.97C1176.93 652.26 1176.85 649.55 1176.76 646.84C1176.54 640 1176.33 633.16 1176.11 626.31C1175.83 617.31 1175.54 608.31 1175.26 599.31C1174.97 590 1174.67 580.69 1174.38 571.38L1173.66 548.51C1173.53 544.43 1173.4 540.36 1173.27 536.28C1173.22 534.8 1172.97 533.32 1172.11 532.1C1171.02 530.55 1169.93 529 1168.83 527.45C1164.31 521.03 1159.79 514.61 1155.26 508.18C1150 500.7 1144.73 493.23 1139.47 485.75L1129.76 471.96C1129.6 471.74 1129.44 471.51 1129.29 471.29V477.33L1145.45 451.13C1146.21 449.89 1146.98 448.66 1147.74 447.42C1149.16 445.12 1148.61 442.06 1146.8 440.17C1142.28 435.42 1137.76 430.67 1133.24 425.91C1126.03 418.34 1118.83 410.76 1111.62 403.19C1109.97 401.45 1108.31 399.71 1106.66 397.98C1104.5 395.71 1100.34 395.64 1098.19 397.98C1095.95 400.42 1095.88 404.02 1098.19 406.45L1098.21 406.47Z" fill="#A8BDEF"/>
<path d="M821.5 1003.83C821.62 985.55 822.6 963.12 824.21 937.85C824.72 929.76 825.31 921.39 825.95 912.76C826.52 904.98 827.15 897 827.82 888.86C830.08 861.23 832.83 831.67 835.85 801.39C843.16 728.18 852.15 650.8 859.98 586.71C870.15 503.33 878.36 442.45 878.36 442.45C878.57 442.29 878.76 442.15 878.97 441.99C926.72 406.07 977.64 385.52 977.64 385.52H977.65C980.52 388.87 983.31 392.3 986.01 395.87C986.02 395.88 986.03 395.9 986.06 395.92C1093 536.05 1088.44 848.74 1109.96 906.67C1116.46 924.17 1122.76 946.43 1126.07 968.51C1127.59 978.62 1128.46 988.69 1128.44 998.25L821.49 1003.82L821.5 1003.83Z" fill="#8DA9EA"/>
<path d="M977.65 385.51C978.84 360.29 974.67 323.75 973.02 310.97C972.71 308.22 970.87 305.89 968.3 304.91C964.53 303.4 958.5 300.88 952.1 297.03C949.98 295.85 947.82 294.36 945.6 292.86C945.54 292.86 945.54 292.79 945.48 292.79C931.55 283 918.44 267.53 923.67 245.64C934.87 199.14 976.06 228.32 976.06 228.32L1045 125.28L1051.72 115.23L1062.11 118.14L1153.93 144.09L1150.92 206.43L1149.5 236.34C1149.5 236.34 1144.53 369.35 1073.71 364.16L1069.56 400.36C1068.73 407.63 1064.28 413.96 1057.73 417.2C1042.09 424.93 1011.19 430.82 977.68 385.52L977.65 385.51Z" fill="#C9D7F5"/>
<path d="M1073.71 364.18C1065.77 363.67 1039.12 359.86 1020.63 328.57C1020.63 328.57 1016.52 365.59 1071.6 382.66L1073.71 364.18Z" fill="#ACC1EF"/>
<path d="M964.21 249.68C966.63 243.66 959.89 237.77 954.22 240.93C949.51 243.55 945.47 249.43 948.79 262.48C955.24 287.84 969.22 277.14 968.38 269.45C967.54 261.76 960.64 258.31 964.11 249.92C964.14 249.84 964.18 249.75 964.21 249.67V249.68Z" fill="#ACC1EF"/>
<path d="M952.08 297.04C958.5 300.85 964.52 303.41 968.3 304.88C968.3 304.88 984.12 306.43 986.84 291.57C985.76 292.92 974.09 306.72 952.08 297.03V297.04Z" fill="#ACC1EF"/>
<path d="M915.03 124.94C915.97 124.68 916.16 123.39 915.32 122.88C910.11 119.69 896.59 112.21 890.67 116.43C883.53 121.52 895 130.54 915.03 124.94Z" fill="#4170DB"/>
<path d="M919.8 119.01C920.79 119.91 922.42 119.18 922.4 117.85C922.29 109.51 921.09 88.46 911.9 84.69C900.83 80.15 898.76 99.96 919.8 119.01Z" fill="#4170DB"/>
<path d="M964.4 158.78L976.04 228.31C976.04 228.31 1049.99 170.49 1098.97 196.34C1124.64 209.9 1141.07 209.69 1150.9 206.41L1153.91 144.07L1062.09 118.12L1044.98 125.27L964.4 158.78Z" fill="#ACC1EF"/>
<path d="M909.93 218.22H909.99C913.77 225.81 918.55 234.04 924.38 242.98C924.38 242.98 935.31 204.38 976.03 228.32C976.03 228.32 1030.54 174.59 1080.97 179.33C1090 180.2 1098.55 183.62 1106.37 188.22C1118.38 195.23 1150.7 208.52 1174.34 182.32C1204.5 148.9 1181.52 114.22 1179.76 111.77C1179.7 111.7 1179.71 111.64 1179.71 111.64C1179.71 111.64 1184.77 34.6201 1120.38 51.8001C1106.61 55.4701 1089.22 64.3801 1079.56 64.3901C1040.87 64.1701 1035.3 34.9301 1007.64 57.6101C973.1 85.9301 932.72 73.4801 935.65 130.96C935.65 130.96 869.13 137.3 909.92 218.22H909.93Z" fill="#567FDF"/>
<path d="M909.99 218.22C913.77 225.8 918.55 234.03 924.38 242.97C924.38 242.97 935.31 204.37 976.03 228.31C976.03 228.31 1030.54 174.58 1080.97 179.32C1090 180.19 1098.55 183.61 1106.37 188.21C1118.38 195.22 1150.7 208.51 1174.34 182.31C1204.5 148.89 1181.52 114.21 1179.76 111.76C1180.18 114.65 1188.36 170.93 1145.56 180.8C1101.62 190.88 1097.82 143.85 1047.36 167.35C996.9 190.91 957.34 181.69 947.47 154.12C947.47 154.12 953.31 224.81 909.99 218.22Z" fill="#4170DB"/>
<path d="M970.87 86.1299C970.87 86.1299 921.85 113.57 964.63 156.22C964.63 156.22 937.75 118.36 970.87 86.1299Z" fill="#4170DB"/>
<path d="M1162.13 132.62C1162.13 132.62 1160.16 175.67 1100.75 160.69C1100.75 160.69 1140.11 166.43 1162.13 132.62Z" fill="#4170DB"/>
<path d="M1161.05 92.4499C1161.05 92.4499 1159.88 48.8799 1113.43 62.8299C1113.43 62.8299 1153.3 60.4699 1161.05 92.4499Z" fill="#4170DB"/>
<path d="M1100.6 92.9199C1100.6 92.9199 1106.55 114.06 1076.97 121.13C1076.97 121.13 1048.48 177.44 987.18 145.96C987.18 145.96 1044.53 165.74 1070.23 115.65C1070.23 115.65 1092.39 116.73 1100.6 92.9199Z" fill="#4170DB"/>
<path d="M924.72 562.13C924.72 562.13 904.9 680.58 882.87 708.51L982.58 885.41L843.51 848.87L822.91 721.22L819.77 642.13C819.77 642.13 856.95 588.66 861.5 585.15C866.05 581.64 924.71 562.13 924.71 562.13H924.72Z" fill="#7093E4"/>
<path d="M982.59 885.4C982.59 885.4 976.01 889.49 966.1 897.05C942.29 915.19 899.22 953.32 881.8 1002.73L877.51 1002.8L861.17 1003.1C851.79 987.17 838.68 964.36 824.22 937.84C796.06 886.21 762.84 820.47 742.45 763.87C728.52 725.2 720.57 690.78 724.33 668.06C726.51 654.91 731.37 640.69 738.11 625.98C769.2 557.89 839.95 479.39 867.28 450.46C870.68 446.87 874.66 444.01 878.99 441.98C888.48 437.51 899.62 437.03 909.59 441.37C924.69 447.94 938.74 465.26 934.54 508.25C932.87 525.41 929.33 543.76 924.74 562.12H924.73C906.31 635.8 870.95 709.91 870.95 709.91L982.5 885.23L982.6 885.4H982.59Z" fill="#8DA9EA"/>
<path d="M783.93 694.84C784.37 724.84 767.44 751.05 742.44 763.88C728.5 725.2 720.56 690.79 724.32 668.06C726.49 654.92 731.36 640.7 738.09 625.98C764.69 637.57 783.47 663.92 783.92 694.84H783.93Z" fill="#A8BDEF"/>
<path d="M962.5 402.61C960.94 408.95 959.39 415.3 957.83 421.64C955.35 431.74 952.87 441.85 950.4 451.95C949.83 454.26 949.27 456.56 948.7 458.87C948.04 461.55 949.16 464.16 951.45 465.63C961.72 472.22 971.99 478.81 982.26 485.4C983.71 486.33 985.17 487.27 986.62 488.2C985.7 485.95 984.79 483.69 983.87 481.44C982.85 486.46 981.83 491.49 980.81 496.51C978.79 506.45 976.77 516.4 974.75 526.34C973.29 533.51 971.84 540.69 970.38 547.86C970.29 548.32 970.19 548.78 970.1 549.24C969.78 550.99 969.97 552.66 970.89 554.15C971.55 555.22 972.29 556.25 972.98 557.29C976.28 562.24 979.57 567.19 982.87 572.14C987.89 579.68 992.92 587.22 997.94 594.76C1003.72 603.43 1009.49 612.11 1015.27 620.78C1020.83 629.12 1026.39 637.47 1031.95 645.81L1045.05 665.48C1047.26 668.79 1049.46 672.1 1051.67 675.41C1051.77 675.56 1051.87 675.71 1051.97 675.86C1053.7 678.46 1057.33 679.83 1060.16 678.01C1062.75 676.34 1064.16 672.61 1062.31 669.82C1059.61 665.77 1056.91 661.72 1054.22 657.67C1047.74 647.95 1041.27 638.22 1034.79 628.5C1026.96 616.74 1019.12 604.98 1011.29 593.22C1004.54 583.09 997.79 572.96 991.05 562.83C987.77 557.91 984.66 552.82 981.19 548.03C981.14 547.96 981.09 547.89 981.05 547.82C981.25 549.36 981.45 550.9 981.65 552.43C983.2 544.79 984.75 537.15 986.3 529.51C988.77 517.33 991.24 505.16 993.72 492.98L995.42 484.6C995.97 481.88 995.03 479.35 992.67 477.84C982.4 471.25 972.13 464.66 961.86 458.07L957.5 455.27C958.42 457.52 959.33 459.78 960.25 462.03C961.81 455.69 963.36 449.34 964.92 443C967.4 432.9 969.88 422.79 972.35 412.69C972.92 410.38 973.48 408.08 974.05 405.77C974.79 402.73 973.08 399.14 969.87 398.41C966.78 397.71 963.3 399.34 962.51 402.59L962.5 402.61Z" fill="#A8BDEF"/>
</g>
<path d="M1356.04 81.4199C1290.38 81.4199 1237.15 134.65 1237.15 200.31C1237.15 265.97 1290.38 319.2 1356.04 319.2C1421.7 319.2 1469.8 270.95 1474.57 209.65C1474.81 206.57 1474.93 203.45 1474.93 200.32C1474.93 134.66 1421.7 81.4299 1356.04 81.4299V81.4199ZM1434.73 209.64C1430.12 249 1396.65 279.54 1356.04 279.54C1312.28 279.54 1276.81 244.07 1276.81 200.31C1276.81 156.55 1312.29 121.08 1356.04 121.08C1399.79 121.08 1435.27 156.55 1435.27 200.31C1435.27 203.47 1435.08 206.58 1434.72 209.64H1434.73Z" fill="#6389E2"/>
<path d="M1348.29 77.48C1282.63 77.48 1229.4 130.71 1229.4 196.37C1229.4 262.03 1282.63 315.26 1348.29 315.26C1413.95 315.26 1462.05 267.01 1466.82 205.71C1467.06 202.63 1467.18 199.51 1467.18 196.37C1467.18 130.71 1413.95 77.48 1348.29 77.48ZM1348.29 275.61C1304.53 275.61 1269.06 240.14 1269.06 196.38C1269.06 152.62 1304.54 117.15 1348.29 117.15C1392.04 117.15 1427.52 152.62 1427.52 196.38C1427.52 199.54 1427.33 202.65 1426.97 205.72C1422.36 245.08 1388.89 275.62 1348.28 275.62L1348.29 275.61Z" fill="white"/>
<path d="M1467.18 196.37C1467.18 199.51 1467.06 202.62 1466.82 205.71H1426.98C1427.34 202.65 1427.53 199.53 1427.53 196.37C1427.53 152.61 1392.06 117.14 1348.3 117.14V77.4902C1413.96 77.4902 1467.19 130.72 1467.19 196.38L1467.18 196.37Z" fill="#8DA9EA"/>
<path d="M870.81 1012.5H474.22L515.76 874.3C517.8 867.52 512.22 862.04 506.39 862.27H472.23L431.64 910.13L439.87 924.34L350.1 1012.5H69.7701C50.5001 1012.5 34.8901 1028.12 34.8901 1047.38V1636.89C34.8901 1656.16 50.5101 1671.77 69.7701 1671.77H870.82C890.09 1671.77 905.7 1656.15 905.7 1636.89V1047.38C905.7 1028.11 890.08 1012.5 870.82 1012.5H870.81Z" fill="#6389E2"/>
<path d="M870.82 1047.39V1636.9C870.82 1656.17 855.2 1671.79 835.93 1671.79H34.88C22.99 1671.79 12.5 1665.85 6.20001 1656.77C2.29001 1651.13 0 1644.28 0 1636.9V1047.39C0 1028.13 15.61 1012.51 34.88 1012.51H315.21L465.42 864.98C472.3 858.23 483.65 865.08 480.87 874.31L439.34 1012.51H835.93C845.16 1012.51 853.56 1016.09 859.8 1021.96C866.58 1028.32 870.82 1037.36 870.82 1047.39Z" fill="#90ABEA"/>
<path d="M6.19 1656.74V1656.77C2.29 1651.13 0 1644.28 0 1636.9V1047.39C0 1028.13 15.61 1012.51 34.88 1012.51H315.21L465.42 864.98C472.3 858.23 483.65 865.08 480.87 874.31L439.34 1012.51H835.93C845.16 1012.51 853.56 1016.09 859.8 1021.96L6.19 1656.74Z" fill="#84A3E8"/>
<path d="M586.6 1456.44C571.38 1440.36 557.33 1430.75 543 1430.95H499.13L483.41 1443.64L481.58 1448.69C447.56 1439.44 420.72 1404.01 411.8 1397.27C403.96 1385.62 352.46 1343.22 364.78 1297.34L371.14 1291.32C394.93 1267.77 387.1 1245.63 362.34 1219.47C346.21 1202.43 334.55 1185.47 321.5 1185.15H277.19L267.67 1235.99L269.29 1237.79C266.83 1243.12 264.94 1248.5 263.64 1253.82C263.64 1253.82 249.15 1297.56 272.63 1347.31C278.84 1360.46 287.06 1372.18 296.81 1382.48L358.52 1447.68L420.23 1512.89C429.98 1523.19 441.23 1532.05 454.02 1538.97C458.81 1541.56 463.56 1543.77 468.23 1545.67L470.05 1548.9L474.99 1555.87H521.31C536.91 1555.79 546.86 1553.1 546.86 1553.1C564.11 1549.87 582.36 1540.63 597.94 1525.88L610.66 1513.85C630.94 1494.65 608.61 1479.71 586.59 1456.45L586.6 1456.44Z" fill="#B8C9F2"/>
<path d="M542.78 1456.44C518.02 1430.28 496.35 1421.24 471.53 1443.7L465.17 1449.72C418.68 1459.5 379.18 1405.74 367.98 1397.27C360.14 1385.62 308.64 1343.22 320.96 1297.34L327.32 1291.32C351.11 1267.77 343.28 1245.63 318.52 1219.47C296.5 1196.21 282.81 1173.08 262.53 1192.28L249.81 1204.31C234.23 1219.06 223.99 1236.77 219.82 1253.82C219.82 1253.82 205.33 1297.56 228.81 1347.31C235.02 1360.46 243.24 1372.18 252.99 1382.48L314.7 1447.68L376.41 1512.89C386.16 1523.19 397.41 1532.05 410.2 1538.97C458.58 1565.15 503.05 1553.09 503.05 1553.09C520.3 1549.86 538.55 1540.62 554.13 1525.87L566.85 1513.84C587.13 1494.64 564.8 1479.7 542.78 1456.44Z" fill="#F2F5FC"/>
<path d="M628.49 1176.45L546.17 1151.58C545.56 1151.39 544.95 1151.33 544.37 1151.35L519.61 1151.34L523.85 1161.32L535.34 1172.68L543.27 1169.92L544.1 1172.37C527.8 1180.39 471.59 1212.36 453.69 1279.11L448.16 1279.9L428.59 1307.24V1345.94H453.12C454.98 1346.02 456.9 1344.94 457.34 1342.62C463.4 1310.88 483.45 1263.04 547.41 1235.37L549.79 1249.27H573.77C575.4 1249.38 577.09 1248.78 578.3 1247.36L631.06 1185.26C633.61 1182.26 632.25 1177.63 628.48 1176.49L628.49 1176.45Z" fill="#A1B8ED"/>
<path d="M603.73 1176.45L521.41 1151.58C517.15 1150.29 513.22 1154.36 514.65 1158.57L519.34 1172.36C498.55 1182.59 412.91 1231.72 424.47 1342.23C424.96 1346.93 431.7 1347.23 432.59 1342.59C439.13 1308.34 461.95 1255.34 538.65 1229.18L544.21 1245.55C545.58 1249.57 550.8 1250.57 553.55 1247.33L606.31 1185.23C608.86 1182.23 607.49 1177.6 603.73 1176.46V1176.45Z" fill="#BECEF3"/>
<path d="M1607.67 2352.4C2323.24 2352.4 2903.32 2291 2903.32 2215.27C2903.32 2139.53 2323.24 2078.14 1607.67 2078.14C892.102 2078.14 312.02 2139.53 312.02 2215.27C312.02 2291 892.102 2352.4 1607.67 2352.4Z" fill="#C5D3F4"/>
<path d="M1656.01 2288.66C2236.72 2288.66 2707.47 2255.8 2707.47 2215.27C2707.47 2174.74 2236.72 2141.88 1656.01 2141.88C1075.3 2141.88 604.55 2174.74 604.55 2215.27C604.55 2255.8 1075.3 2288.66 1656.01 2288.66Z" fill="#9DB5ED"/>
<path d="M2455.67 1391.7C2455.67 1391.7 2413.92 1243.5 2434.32 1123.34C2454.72 1003.19 2468.62 926.4 2467.17 901.01C2467.17 901.01 2522.11 1002.65 2554 1060.22C2624.35 1187.25 2650.25 1289.62 2608.13 1406.23C2608.13 1406.23 2615.25 1466.19 2615.07 1468.89C2614.89 1471.59 2560.92 1537.64 2560.92 1537.64L2461.78 1492.35L2455.67 1391.68V1391.7Z" fill="#90ABEA"/>
<path d="M2538.59 1559.64C2538.59 1559.64 2481.64 1241.3 2481.88 1050.76C2481.88 1050.76 2522.54 1387.74 2586.22 1537.69L2538.59 1559.63V1559.64Z" fill="#7B9CE6"/>
<path d="M2497.05 1552.49L2496.73 1628.05L2496.41 1711.93L2524.85 1716.61C2524.85 1716.61 2536.27 1705.05 2553.38 1689.71C2579.78 1666.12 2619.67 1633.6 2651.98 1620.99C2705.19 1600.18 2788.5 1519.43 2851.99 1374.61C2854.24 1369.52 2856.54 1364.65 2858.93 1360.02C2924.2 1232.24 3042.18 1265 3042.18 1265C2946.21 1233.74 2864.58 1234.98 2795.99 1254.71H2795.95C2584.22 1315.6 2497.07 1552.49 2497.07 1552.49H2497.05Z" fill="#A6BCEE"/>
<path d="M2496.73 1628.05L2496.41 1711.93L2524.85 1716.61C2524.85 1716.61 2536.27 1705.05 2553.38 1689.71C2745.5 1315.09 2866.73 1268.42 2870.53 1267.02C2686.89 1309.81 2544.83 1540.39 2496.74 1628.04L2496.73 1628.05Z" fill="#90ABEA"/>
<path d="M2592.7 1595.38L2573.69 1664.67L2552.55 1741.58L2525.3 1738.6C2525.3 1738.6 2517.79 1725.09 2506.04 1706.68C2487.89 1678.33 2459.65 1638.35 2433.29 1618.54C2389.87 1585.89 2334.2 1490.63 2313.05 1341.76C2312.29 1336.52 2311.43 1331.48 2310.42 1326.63C2283.29 1192.91 2166.85 1192.78 2166.85 1192.78C2262.75 1188.67 2337.2 1210.66 2394.98 1246.25H2395.02C2573.4 1356.13 2592.69 1595.38 2592.69 1595.38H2592.7Z" fill="#A6BCEE"/>
<path d="M2573.69 1664.66L2552.55 1741.57L2525.3 1738.59C2525.3 1738.59 2517.79 1725.08 2506.04 1706.67C2425.78 1314.45 2326.67 1240.73 2323.55 1238.47C2480.82 1324.58 2552.03 1572.08 2573.68 1664.65L2573.69 1664.66Z" fill="#90ABEA"/>
<path d="M2900.89 1457.98C2900.89 1457.98 2636.41 1495.13 2543.16 1687.87C2543.16 1687.87 2624.1 1523.75 2900.89 1457.98Z" fill="#5881E0"/>
<path d="M2871.7 1422.14C2867.61 1446.33 2856.72 1452.5 2851.64 1454.07C2850.11 1454.54 2848.5 1453.56 2848.22 1451.98C2847.29 1446.75 2847.8 1434.24 2867.44 1419.54C2869.38 1418.09 2872.11 1419.75 2871.7 1422.14Z" fill="#5881E0"/>
<path d="M2841.18 1429.79C2839 1454.22 2828.63 1461.23 2823.69 1463.19C2822.2 1463.78 2820.52 1462.93 2820.11 1461.38C2818.78 1456.23 2818.3 1443.73 2836.72 1427.53C2838.54 1425.93 2841.39 1427.37 2841.17 1429.79H2841.18Z" fill="#5881E0"/>
<path d="M2806.5 1442.52C2808.21 1464.36 2800.11 1472.07 2796.05 1474.53C2794.82 1475.27 2793.22 1474.77 2792.63 1473.46C2790.69 1469.13 2788.42 1458.18 2802.24 1441.18C2803.61 1439.5 2806.33 1440.35 2806.5 1442.51V1442.52Z" fill="#5881E0"/>
<path d="M2774.64 1452.72C2780.63 1473.79 2774.22 1482.95 2770.72 1486.17C2769.67 1487.14 2767.99 1486.97 2767.16 1485.8C2764.4 1481.93 2760.01 1471.65 2770.2 1452.26C2771.21 1450.34 2774.04 1450.64 2774.64 1452.72Z" fill="#5881E0"/>
<path d="M2743.93 1465.46C2752.55 1484.19 2747.91 1493.63 2745.13 1497.12C2744.29 1498.18 2742.71 1498.26 2741.76 1497.29C2738.64 1494.1 2733.06 1485.17 2739.74 1465.67C2740.4 1463.74 2743.08 1463.6 2743.93 1465.46Z" fill="#5881E0"/>
<path d="M2706.51 1474.33C2723.5 1486.01 2724.34 1496.5 2723.74 1500.93C2723.56 1502.27 2722.24 1503.15 2720.94 1502.8C2716.62 1501.65 2707.27 1496.84 2703.02 1476.66C2702.6 1474.66 2704.83 1473.18 2706.51 1474.33Z" fill="#5881E0"/>
<path d="M2902.45 1491.2C2884.43 1474.51 2872.03 1476.27 2867.04 1478.12C2865.53 1478.68 2864.86 1480.44 2865.6 1481.87C2868.06 1486.59 2876.1 1496.2 2900.66 1495.87C2903.09 1495.84 2904.24 1492.85 2902.45 1491.2Z" fill="#5881E0"/>
<path d="M2873.57 1503.78C2856.92 1485.73 2844.41 1486.51 2839.29 1487.97C2837.74 1488.41 2836.93 1490.11 2837.56 1491.59C2839.64 1496.49 2846.91 1506.7 2871.41 1508.29C2873.84 1508.45 2875.21 1505.56 2873.56 1503.78H2873.57Z" fill="#5881E0"/>
<path d="M2838.28 1514.86C2826.29 1496.49 2815.16 1495.32 2810.43 1495.85C2809 1496.01 2808.03 1497.39 2808.37 1498.78C2809.48 1503.4 2814.36 1513.48 2835.71 1518.51C2837.82 1519.01 2839.46 1516.67 2838.28 1514.85V1514.86Z" fill="#5881E0"/>
<path d="M2806.78 1526.22C2798.66 1505.84 2787.98 1502.5 2783.24 1502.08C2781.81 1501.95 2780.59 1503.11 2780.64 1504.55C2780.81 1509.3 2783.61 1520.14 2803.54 1529.3C2805.51 1530.21 2807.58 1528.24 2806.78 1526.22Z" fill="#5881E0"/>
<path d="M2775.74 1544.28C2774.16 1522.4 2764.99 1515.98 2760.61 1514.15C2759.29 1513.6 2757.77 1514.33 2757.39 1515.72C2756.12 1520.3 2755.5 1531.48 2771.73 1546.24C2773.34 1547.7 2775.9 1546.45 2775.75 1544.29L2775.74 1544.28Z" fill="#5881E0"/>
<path d="M2745.2 1556.6C2745.7 1534.67 2737.18 1527.41 2732.99 1525.17C2731.72 1524.49 2730.14 1525.08 2729.63 1526.42C2727.93 1530.86 2726.26 1541.93 2741.02 1558.15C2742.48 1559.76 2745.15 1558.76 2745.2 1556.59V1556.6Z" fill="#5881E0"/>
<path d="M2191.2 1263.36C2191.2 1263.36 2490.89 1425.59 2516.52 1697.58C2516.52 1697.58 2492.85 1465.29 2191.2 1263.36Z" fill="#5881E0"/>
<path d="M2242.06 1233.5C2236.17 1264.24 2246.45 1276.47 2251.82 1280.61C2253.44 1281.86 2255.8 1281.4 2256.84 1279.64C2260.28 1273.79 2265.25 1258.62 2248.32 1232.29C2246.64 1229.68 2242.65 1230.46 2242.06 1233.5Z" fill="#5881E0"/>
<path d="M2275.15 1256.24C2266.87 1286.42 2276.16 1299.42 2281.19 1303.97C2282.71 1305.34 2285.1 1305.07 2286.27 1303.39C2290.16 1297.83 2296.3 1283.09 2281.48 1255.52C2280.01 1252.79 2275.97 1253.25 2275.15 1256.24Z" fill="#5881E0"/>
<path d="M2310.95 1286.91C2299.18 1312.27 2305.43 1325.09 2309.19 1329.84C2310.32 1331.28 2312.47 1331.39 2313.75 1330.09C2318 1325.77 2325.6 1313.7 2316.63 1287.22C2315.74 1284.6 2312.11 1284.4 2310.95 1286.91Z" fill="#5881E0"/>
<path d="M2344.49 1313.31C2327.94 1335.84 2331.53 1349.65 2334.27 1355.05C2335.1 1356.68 2337.18 1357.22 2338.69 1356.19C2343.71 1352.8 2353.54 1342.46 2349.99 1314.73C2349.64 1311.99 2346.12 1311.07 2344.48 1313.3L2344.49 1313.31Z" fill="#5881E0"/>
<path d="M2375.53 1342.22C2356.88 1360.77 2358.23 1374.13 2359.99 1379.55C2360.52 1381.19 2362.38 1381.99 2363.94 1381.25C2369.1 1378.82 2379.74 1370.64 2380.45 1344.34C2380.52 1341.74 2377.38 1340.38 2375.53 1342.22Z" fill="#5881E0"/>
<path d="M2416.33 1369.49C2390.82 1375.89 2385.14 1388.06 2383.89 1393.62C2383.51 1395.3 2384.7 1396.94 2386.41 1397.1C2392.08 1397.65 2405.41 1396.06 2419.47 1373.83C2420.86 1371.63 2418.86 1368.86 2416.33 1369.49Z" fill="#5881E0"/>
<path d="M2174.53 1302.38C2203.51 1290.45 2217.56 1298.08 2222.7 1302.52C2224.25 1303.86 2224.28 1306.27 2222.75 1307.64C2217.7 1312.18 2203.81 1320.1 2174.6 1308.76C2171.71 1307.64 2171.67 1303.56 2174.53 1302.38Z" fill="#5881E0"/>
<path d="M2203.46 1330.28C2231.41 1316.11 2246.02 1322.62 2251.49 1326.64C2253.14 1327.86 2253.36 1330.25 2251.94 1331.74C2247.27 1336.66 2234.03 1345.65 2204.02 1336.63C2201.05 1335.74 2200.69 1331.68 2203.46 1330.28Z" fill="#5881E0"/>
<path d="M2240.72 1359.25C2263.24 1342.63 2277.07 1346.19 2282.48 1348.92C2284.12 1349.75 2284.66 1351.83 2283.64 1353.35C2280.25 1358.38 2269.93 1368.25 2242.16 1364.76C2239.41 1364.41 2238.49 1360.89 2240.72 1359.25Z" fill="#5881E0"/>
<path d="M2273.33 1386.87C2292.12 1366.12 2306.38 1366.88 2312.23 1368.49C2314 1368.98 2314.94 1370.91 2314.24 1372.6C2311.92 1378.2 2303.75 1389.92 2275.84 1391.99C2273.08 1392.19 2271.48 1388.92 2273.34 1386.87H2273.33Z" fill="#5881E0"/>
<path d="M2302.4 1422.3C2314.03 1396.84 2327.85 1393.25 2333.91 1393.01C2335.74 1392.94 2337.23 1394.5 2337.07 1396.32C2336.55 1402.36 2332.31 1416 2306.33 1426.42C2303.76 1427.45 2301.25 1424.82 2302.4 1422.3Z" fill="#5881E0"/>
<path d="M2333.42 1450.63C2342.59 1424.19 2356.01 1419.3 2362.02 1418.49C2363.84 1418.25 2365.46 1419.65 2365.48 1421.49C2365.53 1427.55 2362.6 1441.53 2337.73 1454.36C2335.27 1455.63 2332.52 1453.24 2333.42 1450.63Z" fill="#5881E0"/>
<path d="M2915.45 1822.17C2870.56 1772.67 2719.94 1625.34 2564.84 1685.01C2559.05 1687.22 2553.25 1689.73 2547.46 1692.55C2545.41 1693.54 2543.22 1694.24 2540.96 1694.44C2537.53 1694.73 2533.07 1694.14 2530.72 1689.87C2528.86 1686.48 2529.28 1682.28 2531.37 1679.03C2536.76 1670.72 2551.64 1649.12 2574.28 1626.49C2617.77 1582.98 2689.92 1535.64 2778.39 1571.74C2896.88 1620.08 2922.14 1762.87 2927.5 1816.79C2928.16 1823.43 2919.96 1827.13 2915.45 1822.16V1822.17Z" fill="#BCCDF2"/>
<path d="M2863.97 1698.68C2855.16 1686.4 2729.64 1528.62 2564.84 1685.01C2559.05 1687.22 2553.25 1689.73 2547.46 1692.55C2545.41 1693.54 2543.22 1694.24 2540.96 1694.44C2537.53 1694.73 2533.07 1694.14 2530.72 1689.87C2528.86 1686.48 2529.28 1682.28 2531.37 1679.03C2531.37 1679.03 2708.88 1482.53 2863.97 1698.67V1698.68Z" fill="#E6EDFA"/>
<path d="M2864.44 1699.33C2864.28 1699.1 2864.15 1698.89 2863.97 1698.68C2864.22 1699 2864.36 1699.21 2864.44 1699.33Z" fill="#6E92E4"/>
<path d="M2095.24 1619.36C2166.03 1604.75 2391.55 1572.12 2488.97 1723.15C2492.61 1728.77 2496.08 1734.66 2499.34 1740.82C2500.5 1742.99 2501.96 1745 2503.81 1746.62C2506.62 1749.06 2510.89 1751.39 2515.67 1749.16C2519.45 1747.38 2521.77 1743.45 2522.02 1739.28C2522.61 1728.59 2523.38 1700.23 2518.04 1666.02C2507.8 1600.27 2474.97 1512.91 2374.67 1488.03C2240.34 1454.69 2127.21 1563.3 2088.14 1606.98C2083.33 1612.36 2088.14 1620.82 2095.24 1619.35V1619.36Z" fill="#BCCDF2"/>
<path d="M2218.97 1544.32C2234.63 1539.62 2444.77 1481.44 2488.98 1723.15C2492.62 1728.77 2496.09 1734.66 2499.35 1740.82C2500.51 1742.99 2501.97 1745 2503.82 1746.62C2506.63 1749.06 2510.9 1751.39 2515.68 1749.16C2519.46 1747.38 2521.78 1743.45 2522.03 1739.28C2522.62 1728.59 2523.39 1700.23 2518.05 1666.02C2489.23 1585.58 2413.82 1479.35 2218.97 1544.32Z" fill="#E6EDFA"/>
<path d="M2768.55 1033.67C2768.55 1033.67 2427.69 1443.53 2548.63 1853.4C2548.63 1853.4 2447.93 1502.31 2768.55 1033.67Z" fill="#5881E0"/>
<path d="M2677.33 1019.9C2703.76 1061.12 2695.95 1084.85 2690.55 1093.99C2688.92 1096.75 2685.23 1097.46 2682.69 1095.5C2674.3 1089.01 2658.25 1069.86 2667.54 1021.78C2668.46 1017.02 2674.71 1015.82 2677.33 1019.9Z" fill="#5881E0"/>
<path d="M2642.5 1072.16C2672.08 1111.18 2666.15 1135.45 2661.49 1144.98C2660.08 1147.86 2656.45 1148.86 2653.77 1147.1C2644.89 1141.29 2627.4 1123.45 2632.89 1074.8C2633.43 1069.99 2639.57 1068.3 2642.5 1072.16Z" fill="#5881E0"/>
<path d="M2608.35 1137.51C2640.19 1167.49 2638.57 1189.75 2635.88 1198.83C2635.07 1201.57 2632.02 1202.99 2629.4 1201.84C2620.72 1198.04 2602.66 1184.92 2600.28 1141.26C2600.04 1136.94 2605.2 1134.54 2608.35 1137.51Z" fill="#5881E0"/>
<path d="M2574.99 1195.35C2612.13 1218.44 2614.94 1240.58 2614.1 1250.02C2613.85 1252.87 2611.14 1254.86 2608.34 1254.25C2599.08 1252.24 2578.79 1242.95 2567.82 1200.62C2566.73 1196.43 2571.32 1193.06 2574.99 1195.35Z" fill="#5881E0"/>
<path d="M2546.72 1255.38C2584.59 1271.48 2590.4 1291.66 2590.99 1300.55C2591.17 1303.24 2588.94 1305.48 2586.25 1305.32C2577.35 1304.79 2557.14 1299.09 2540.82 1261.32C2539.2 1257.58 2542.98 1253.79 2546.73 1255.38H2546.72Z" fill="#5881E0"/>
<path d="M2503.34 1318.71C2544.11 1313.17 2559.43 1327.53 2564.48 1334.88C2566.01 1337.1 2565.24 1340.17 2562.85 1341.4C2554.93 1345.5 2534.65 1350.94 2501.3 1326.83C2498 1324.44 2499.3 1319.25 2503.34 1318.7V1318.71Z" fill="#5881E0"/>
<path d="M2815.44 1080.65C2766.42 1080.17 2750.45 1099.42 2745.58 1108.86C2744.11 1111.71 2745.47 1115.22 2748.48 1116.33C2758.45 1119.99 2783.23 1123.41 2819.06 1089.96C2822.61 1086.65 2820.3 1080.71 2815.44 1080.66V1080.65Z" fill="#5881E0"/>
<path d="M2789.65 1137.99C2740.82 1133.67 2723.39 1151.61 2717.79 1160.64C2716.1 1163.37 2717.18 1166.97 2720.1 1168.31C2729.75 1172.74 2754.19 1178.09 2792.53 1147.55C2796.32 1144.53 2794.49 1138.42 2789.65 1137.99Z" fill="#5881E0"/>
<path d="M2752.4 1201.73C2710.03 1190.68 2692.02 1203.9 2685.75 1211.02C2683.86 1213.17 2684.28 1216.51 2686.64 1218.12C2694.48 1223.46 2715.21 1231.79 2753.51 1210.58C2757.3 1208.48 2756.59 1202.83 2752.4 1201.74V1201.73Z" fill="#5881E0"/>
<path d="M2721.11 1260.79C2681.77 1241.58 2661.49 1250.98 2653.94 1256.71C2651.66 1258.44 2651.41 1261.8 2653.41 1263.85C2660.04 1270.63 2678.71 1282.9 2720.45 1269.68C2724.58 1268.37 2725 1262.69 2721.11 1260.79Z" fill="#5881E0"/>
<path d="M2699.5 1329.14C2667.81 1298.93 2645.64 1301.76 2636.71 1304.94C2634.01 1305.9 2632.76 1309.02 2634.05 1311.58C2638.32 1320.05 2652.41 1337.39 2696.19 1337.42C2700.52 1337.42 2702.64 1332.14 2699.5 1329.15V1329.14Z" fill="#5881E0"/>
<path d="M2670.92 1388.33C2642.23 1355.26 2619.9 1355.97 2610.7 1358.29C2607.92 1358.99 2606.38 1361.98 2607.42 1364.65C2610.87 1373.49 2623.25 1392.08 2666.84 1396.25C2671.15 1396.66 2673.76 1391.6 2670.92 1388.33Z" fill="#5881E0"/>
<path d="M2364 1776.79H2364.05C2364.05 1776.79 2364.04 1776.8 2364 1776.83V1776.79Z" fill="#C3D2F4"/>
<path d="M2693.17 1776.79L2650.83 2194.18C2631.33 2198.61 2611.66 2201.96 2591.89 2204.24C2570.86 2206.68 2549.74 2207.89 2528.61 2207.89C2488.22 2207.89 2447.84 2203.46 2408.17 2194.59L2406.39 2194.19L2368.55 1825.21L2364.06 1776.8H2693.18L2693.17 1776.79Z" fill="#809FE7"/>
<g opacity="0.6">
<path d="M2693.17 1776.79L2650.83 2194.18C2631.33 2198.61 2611.66 2201.96 2591.89 2204.24C2659.01 1666.15 2368.55 1825.21 2368.55 1825.21L2364.06 1776.8H2693.18L2693.17 1776.79Z" fill="#4F7ADE"/>
</g>
<path d="M2714.45 1694.53V1755.12C2714.45 1767.09 2704.76 1776.78 2692.79 1776.78L2574.03 1781.28C2543.77 1782.42 2513.48 1782.42 2483.21 1781.28L2364.4 1776.78C2352.43 1776.78 2342.74 1767.09 2342.74 1755.12V1694.53C2342.74 1682.56 2352.43 1672.87 2364.4 1672.87L2484.15 1677.37C2514.41 1678.51 2544.71 1678.5 2574.97 1677.35L2692.8 1672.87C2704.77 1672.87 2714.46 1682.56 2714.46 1694.53H2714.45Z" fill="#567FDF"/>
<path d="M2714.45 1694.53V1726.62C2714.45 1738.58 2704.76 1748.28 2692.79 1748.28L2574.03 1752.77C2543.77 1753.92 2513.48 1753.92 2483.21 1752.77L2364.4 1748.28C2352.43 1748.28 2342.74 1738.58 2342.74 1726.62V1694.53C2342.74 1682.56 2352.43 1672.87 2364.4 1672.87L2484.15 1677.37C2514.41 1678.51 2544.71 1678.5 2574.97 1677.35L2692.8 1672.87C2704.77 1672.87 2714.46 1682.56 2714.46 1694.53H2714.45Z" fill="#678DE2"/>
<path d="M1707.19 793.19C1707.19 793.19 1613.19 904.2 1519.49 848.74C1425.79 793.29 1575.2 548.62 1575.2 548.62C1575.2 548.62 1575.84 530.79 1581.58 499.17C1587.32 467.55 1665.43 417.03 1665.43 417.03L1684.18 412.35C1684.18 412.35 1694.02 512.35 1691.51 534.57C1689 556.79 1656.64 582.92 1656.64 582.92L1601.67 738.65L1622.11 717.64L1656.16 712.99L1702.09 706.71L1707.19 793.19Z" fill="#C9D7F5"/>
<path d="M1609.86 491.26C1609.86 491.26 1588.33 532.37 1617.31 537.47C1646.29 542.57 1661.61 560.58 1669.15 552.55C1676.69 544.52 1677.42 488.1 1677.42 488.1L1650.18 461.1L1609.87 491.26H1609.86Z" fill="#ACC1EF"/>
<path d="M1656.16 712.99L1592.82 764.83L1601.67 738.65L1622.11 717.64L1656.16 712.99Z" fill="#ACC1EF"/>
<path d="M1686.88 538.42L1613.25 497.02C1610.04 495.22 1608.9 491.15 1610.71 487.94L1683.7 358.11C1685.5 354.9 1689.57 353.76 1692.78 355.57L1766.41 396.97C1769.62 398.77 1770.76 402.84 1768.95 406.05L1695.96 535.88C1694.16 539.09 1690.09 540.23 1686.88 538.42Z" fill="#6389E2"/>
<path d="M1776.41 410.23L1703.41 540.07C1701.61 543.28 1697.54 544.42 1694.33 542.62L1620.7 501.22C1619.22 500.39 1618.18 499.07 1617.68 497.56C1617.51 497.11 1617.41 496.64 1617.36 496.15C1617.2 494.81 1617.46 493.41 1618.17 492.14L1691.17 362.3C1692.97 359.09 1697.03 357.96 1700.24 359.76L1773.87 401.16C1775.43 402.04 1776.5 403.44 1776.97 405.03C1777.49 406.71 1777.34 408.59 1776.42 410.24L1776.41 410.23Z" fill="#F2F5FC"/>
<path d="M1776.41 410.23L1703.41 540.07C1701.61 543.28 1697.54 544.42 1694.33 542.62L1620.7 501.22C1619.22 500.39 1618.18 499.07 1617.68 497.56L1617.36 496.15L1776.97 405.03C1777.49 406.71 1777.34 408.59 1776.42 410.24L1776.41 410.23Z" fill="white"/>
<path d="M1673.87 512.27C1671.55 516.4 1666.31 517.87 1662.18 515.55C1658.05 513.23 1656.58 507.99 1658.9 503.86C1661.22 499.73 1666.46 498.26 1670.59 500.58C1674.72 502.9 1676.19 508.14 1673.87 512.27Z" fill="#6389E2"/>
<path d="M1687.03 1033.46C1691.83 997.09 1694.63 962.71 1693.7 935.13C1692.95 912.4 1689.67 894.3 1682.9 883.51C1641.7 817.86 1660.35 780.45 1660.35 780.45C1657.94 772.3 1654.84 764.8 1651.46 758.03C1638.79 732.67 1622.11 717.64 1622.11 717.64C1675.65 644.84 1743.69 617.42 1743.69 617.42L1874.59 599.62C1874.59 599.62 1910.61 607.26 1945.18 628.46C1964.75 640.46 1968.35 669.35 1965.08 718.83C1963.25 746.55 1959.25 780.74 1954.71 822.05C1951.06 855.16 1949.91 887.9 1950.64 919.74C1955.23 1120.5 2034.52 1285.73 2034.52 1285.73H1636.13C1636.13 1285.73 1671.74 1149.49 1687.03 1033.46Z" fill="#9BB3EC"/>
<path d="M1709.32 686.39C1697.2 727.19 1660.35 780.45 1660.35 780.45C1657.94 772.3 1654.84 764.8 1651.46 758.03C1677.16 738.31 1709.32 686.39 1709.32 686.39Z" fill="#84A3E8"/>
<path d="M1883.76 297.31L1889.25 452.2C1921.84 698.55 2089.08 611.09 2089.08 611.09C2013.6 553.52 2062.53 358.64 2006.58 292.96C1950.63 227.28 1883.77 297.31 1883.77 297.31H1883.76Z" fill="#3B6BDA"/>
<path d="M1906.32 291.86C1906.32 291.86 1968.01 245.84 2003.59 312.77C2039.17 379.7 2018.9 469.91 2035.1 514.91C2035.1 514.91 2016.79 485.59 2012.89 400.41C2008.99 315.23 1962.11 266.85 1906.32 291.86Z" fill="#2057D5"/>
<path d="M1962.3 346.93C1962.3 346.93 1982.88 390.43 1983.05 449.63C1983.22 508.84 2004.84 519.75 2004.84 519.75C2004.84 519.75 1976.38 511.27 1972.75 438.01C1969.13 364.74 1962.3 346.93 1962.3 346.93Z" fill="#2057D5"/>
<path d="M1872.36 308.72L1888.94 292.46C1888.94 292.46 1963.36 315.28 1913.91 422.28C1917.32 459.03 1928.89 520.94 1968.13 536.67C2027.25 560.37 2001.53 606.3 2089.07 611.08C2089.07 611.08 1921.84 698.54 1889.24 452.19L1886.37 371.27L1872.35 308.71L1872.36 308.72Z" fill="#2057D5"/>
<path d="M1907.48 481.19L1907.57 483.68C1907.57 483.68 1922.75 607.58 2023.94 611.19C2023.94 611.19 1946.26 590.98 1907.49 481.2L1907.48 481.19Z" fill="#3B6BDA"/>
<path d="M1854.28 579.51C1830.18 561.02 1841.18 500.54 1841.18 500.54C1841.44 497.59 1843.35 495.05 1846.1 494C1850.09 492.28 1856.51 489.48 1863.29 485.19C1865.56 483.9 1867.81 482.24 1870.17 480.63C1870.22 480.58 1870.22 480.52 1870.27 480.52C1884.98 469.75 1898.73 452.91 1892.7 429.62C1879.75 380.03 1836.25 412.12 1836.25 412.12L1760.37 303.2L1752.95 292.58L1741.92 295.91L1644.14 325.55L1648.6 392.21L1650.73 424.2C1650.73 424.2 1658.77 566.49 1734.43 559.5C1734.43 559.5 1750.36 558.15 1756.37 552.73C1756.37 552.73 1757.96 560.4 1758.85 569.31C1758.92 569.94 1758.95 570.62 1759.03 571.3C1759.75 579.69 1760.64 589.36 1757.18 593.29C1757.18 593.29 1758.73 624.15 1789.7 624.62C1820.67 625.1 1854.27 579.49 1854.27 579.49L1854.28 579.51Z" fill="#C9D7F5"/>
<path d="M1849.36 434.77C1846.65 428.37 1853.75 421.94 1859.88 425.21C1864.97 427.92 1869.42 434.13 1866.13 448.17C1859.74 475.45 1844.55 464.28 1845.3 456.03C1846.05 447.78 1853.36 443.95 1849.47 435.03C1849.43 434.94 1849.39 434.85 1849.36 434.76V434.77Z" fill="#ACC1EF"/>
<path d="M1730 419.15C1730.52 417.02 1731.81 415.17 1733.63 413.92C1735.77 412.44 1738 411.81 1740.81 411.93C1745.73 412.14 1752.37 415.67 1753.24 420.8C1753.6 422.92 1756.35 423.99 1758.2 423.42C1760.47 422.72 1761.18 420.58 1760.82 418.46C1760.06 413.98 1756.63 410.56 1753.03 408.1C1749.36 405.6 1745 404.18 1740.56 404C1732.33 403.67 1724.25 409.16 1722.28 417.28C1721.07 422.25 1728.79 424.12 1729.99 419.16L1730 419.15Z" fill="#3D6DDA"/>
<path d="M1663.88 418.81C1664.93 414.62 1670.63 411 1674.85 410.8C1679.73 410.57 1683.96 415.13 1686.28 419.55C1687.28 421.45 1690.03 421.88 1691.75 420.81C1693.68 419.6 1694.01 417.24 1693.01 415.34C1689.44 408.54 1682.27 402.23 1674.14 402.9C1666.46 403.53 1658.11 409.23 1656.17 416.94C1655.65 419.02 1657.02 421.23 1659.09 421.74C1661.2 422.25 1663.36 420.91 1663.89 418.82L1663.88 418.81Z" fill="#3D6DDA"/>
<path d="M1682.64 442.54C1682.83 448.77 1679.82 453.91 1675.92 454.03C1672.02 454.15 1668.7 449.2 1668.51 442.97C1668.32 436.74 1671.33 431.6 1675.23 431.48C1679.13 431.36 1682.45 436.31 1682.64 442.54Z" fill="#3D6DDA"/>
<path d="M1747.81 440.55C1748.01 447.12 1744.84 452.54 1740.72 452.67C1736.6 452.8 1733.1 447.57 1732.9 441.01C1732.7 434.44 1735.87 429.02 1739.99 428.89C1744.11 428.76 1747.61 433.99 1747.81 440.55Z" fill="#3D6DDA"/>
<path d="M1863.3 485.23C1856.5 489.44 1850.11 492.3 1846.1 493.95C1846.1 493.95 1829.2 495.93 1825.98 480.08C1827.17 481.5 1839.94 496.04 1863.3 485.23Z" fill="#ACC1EF"/>
<path d="M1883.76 297.33C1883.76 297.33 1927.98 345.53 1891.68 427.1C1891.68 427.1 1959.36 356.67 1883.76 297.33Z" fill="#BACBF2"/>
<path d="M1641.46 383.38C1643.36 388.15 1645.84 392.9 1648.95 397.57C1648.95 397.57 1721.54 380.96 1734.15 339.19C1734.15 339.19 1725.59 404.68 1824.36 433.99L1829.15 425.15C1835.62 413.36 1847.09 404.7 1860.43 403.01C1873.2 401.45 1887.29 405.84 1892.71 429.62C1892.71 429.62 1944.33 275.07 1818.51 268.86C1818.51 268.86 1815.04 264.46 1808.44 259.12H1808.39C1798.16 250.86 1780.49 240.4 1756.42 240.41C1729.24 240.32 1693.8 253.61 1651.82 298.63C1651.82 298.63 1624.57 341.18 1641.47 383.37L1641.46 383.38Z" fill="#3B6BDA"/>
<path d="M1641.46 383.38C1643.36 388.15 1645.84 392.9 1648.95 397.57C1648.95 397.57 1721.54 380.96 1734.15 339.19C1734.15 339.19 1725.59 404.68 1824.36 433.99L1829.15 425.15C1835.62 413.36 1847.09 404.7 1860.43 403.01C1873.2 401.45 1887.29 405.84 1892.71 429.62C1879.72 355.38 1825.88 412.96 1825.88 412.96C1752.38 408.26 1736.01 318.78 1736.01 318.78C1720.97 368.99 1641.46 383.38 1641.46 383.38Z" fill="#2057D5"/>
<path d="M1759.3 329.64C1759.3 329.64 1765.3 385.28 1828.44 386.99C1828.44 386.99 1780.51 369.49 1759.3 329.64Z" fill="#2057D5"/>
<path d="M1715.26 314.29C1715.26 314.29 1694.15 359.29 1643.43 365.74C1643.43 365.74 1679.04 351.96 1715.26 314.29Z" fill="#2057D5"/>
<path d="M1780.24 288.1C1803.37 270.2 1818.51 268.87 1818.51 268.87C1818.51 268.87 1815.04 264.47 1808.44 259.13H1808.39C1798.16 250.87 1780.49 240.41 1756.42 240.42C1801.21 246.19 1780.24 288.1 1780.24 288.1Z" fill="#2057D5"/>
<path d="M1756.39 552.74C1756.39 552.74 1757.98 560.41 1758.87 569.32C1758.94 569.95 1758.97 570.63 1759.05 571.31C1789.73 555.82 1793.67 515.62 1793.67 515.62C1786.15 534.71 1756.4 552.74 1756.4 552.74H1756.39Z" fill="#ACC1EF"/>
<path d="M1723.66 505.89C1726.76 518.17 1724.59 526.23 1716.82 529.38C1709.06 532.53 1700.31 529.03 1695.55 517.29C1690.79 505.56 1695.45 498.98 1703.21 495.83C1710.97 492.68 1721.58 497.64 1723.66 505.88V505.89Z" fill="#92ADEA"/>
<path d="M1778.69 630.26V643.33C1762.95 715.87 1708.55 719.58 1683.17 717.14C1680.98 716.93 1680.03 714.78 1680.64 713.1C1680.9 712.34 1681.49 711.67 1682.43 711.32C1729.98 693.62 1766.18 636.95 1766.18 636.95L1778.69 630.26Z" fill="#8DA9EA"/>
<path d="M1778.69 640.05C1778.69 640.05 1767.52 728.23 1782.68 748.45C1791.64 760.4 1804.58 771.91 1813.66 779.32C1817.24 782.24 1822.51 779.11 1821.65 774.57C1819.02 760.77 1815.58 738.76 1816.54 722.17C1818.06 696.14 1789 632.98 1789 632.98L1778.69 640.05Z" fill="#8DA9EA"/>
<path d="M1800.1 630.06L1796.85 635.07C1792.75 641.38 1785.37 644.85 1777.92 643.81C1770.43 642.76 1762.25 640.24 1761.25 634.23C1761.04 632.99 1760.93 631.74 1760.9 630.51C1760.64 620.45 1765.61 611.19 1765.61 611.19L1775.02 604.55L1789.51 605.75L1798.06 625.38L1800.1 630.06Z" fill="#6A8EE3"/>
<path d="M1798.06 625.38L1795.67 629.04C1791.57 635.36 1784.2 638.82 1776.75 637.78C1770.3 636.88 1763.35 634.89 1760.9 630.51C1760.64 620.45 1765.61 611.19 1765.61 611.19L1775.02 604.55L1789.51 605.75L1798.06 625.38Z" fill="#809FE7"/>
<path d="M1789.51 605.74L1797.1 654C1797.1 654 1846.06 647.75 1874.59 599.61L1854.12 564.44C1854.12 564.44 1830.72 588.72 1789.51 605.73V605.74Z" fill="white"/>
<path d="M1759.6 578.79L1743.69 617.42C1743.69 617.42 1749.31 634.28 1760.55 642.94L1775.03 604.54C1775.03 604.54 1759.13 589.09 1759.61 578.79H1759.6Z" fill="white"/>
<path d="M1778.69 642.79V643.33C1762.95 715.87 1708.55 719.58 1683.17 717.14C1680.98 716.93 1680.03 714.78 1680.64 713.1C1743.25 720.65 1777.92 643.81 1777.92 643.81L1778.69 642.79Z" fill="#6A8EE3"/>
<path d="M1815.13 770.51C1815.13 770.51 1803.38 762.48 1790.15 744.94C1776.92 727.4 1783.46 646.51 1783.46 646.51C1783.46 646.51 1778.19 740.88 1815.13 770.51Z" fill="#6A8EE3"/>
<path d="M1954.71 822.05C1951.06 855.16 1949.91 887.9 1950.64 919.74C1933.95 941.16 1914.16 959.97 1891.92 975.54L1744.34 1084.68H1717.13L1687.03 1033.46C1691.83 997.09 1694.63 962.71 1693.7 935.13L1808.53 841.76L1891.96 666.28L1914.24 663.03L1965.08 718.83C1963.25 746.55 1959.25 780.74 1954.71 822.05Z" fill="#84A3E8"/>
<path d="M1947.98 862.58L1924.75 913.9C1918.81 927.02 1909.73 938.47 1898.31 947.24L1716.47 1064.47C1714.27 1065.89 1712.19 1067.49 1710.26 1069.25L1705.44 1073.66C1697.68 1080.75 1687.56 1084.68 1677.05 1084.68H1652V1041.13H1488.61C1524.45 995.97 1588.35 989.22 1620.88 988.93C1634.77 988.81 1648.28 984.33 1659.44 976.05L1663.08 973.35C1663.08 973.35 1663.09 973.34 1663.11 973.33L1816.89 859.22L1837.65 804.09L1855.86 793.19L1919.54 755.04L1947.98 862.58Z" fill="#C9D7F5"/>
<path d="M1667.14 1084.68H1652V1041.13H1488.61C1488.61 1041.13 1644.51 1016.15 1663.11 1033.03C1677.11 1045.74 1671.01 1072.32 1667.14 1084.68Z" fill="#ACC1EF"/>
<path d="M1864.49 868.33C1864.49 868.33 1826.3 865.41 1817.53 868.33C1808.83 871.24 1665.35 971.76 1663.11 973.33L1816.89 859.22L1837.65 804.09L1855.86 793.19L1832.05 858.23C1832.05 858.23 1850.66 857.81 1864.49 868.33Z" fill="#ACC1EF"/>
<path d="M1837.66 804.09C1837.66 804.09 1881.28 691.85 1898.79 649.54C1916.3 607.24 1982.75 621.76 1983.56 697.97C1984.37 774.17 1947.99 862.58 1947.99 862.58C1947.99 862.58 1908.17 794.12 1837.66 804.09Z" fill="#9BB3EC"/>
<path d="M1662.98 1040.12H1174.64C1162.34 1040.12 1152.36 1050.1 1152.36 1062.4C1152.36 1074.7 1162.34 1084.68 1174.64 1084.68H1662.98C1675.29 1084.68 1685.26 1074.7 1685.26 1062.4C1685.26 1050.1 1675.29 1040.12 1662.98 1040.12Z" fill="#A1B8ED"/>
<path d="M1481.84 1040.12H993.5C981.195 1040.12 971.22 1050.1 971.22 1062.4C971.22 1074.7 981.195 1084.68 993.5 1084.68H1481.84C1494.15 1084.68 1504.12 1074.7 1504.12 1062.4C1504.12 1050.1 1494.15 1040.12 1481.84 1040.12Z" fill="#CEDAF6"/>
<path d="M2513.48 1084.68H1307.75C1301.12 1084.68 1295.75 1090.05 1295.75 1096.68V1162.36C1295.75 1168.99 1301.12 1174.36 1307.75 1174.36H2513.48C2520.11 1174.36 2525.48 1168.99 2525.48 1162.36V1096.68C2525.48 1090.05 2520.11 1084.68 2513.48 1084.68Z" fill="#7093E4"/>
<path d="M1880.71 1084.68H674.98C668.353 1084.68 662.98 1090.05 662.98 1096.68V1162.36C662.98 1168.99 668.353 1174.36 674.98 1174.36H1880.71C1887.34 1174.36 1892.71 1168.99 1892.71 1162.36V1096.68C1892.71 1090.05 1887.34 1084.68 1880.71 1084.68Z" fill="#8DA9EA"/>
<path d="M1373.97 1174.36H2441.01V2127.41C2441.01 2169.39 2406.93 2203.47 2364.95 2203.47H1450.03C1408.05 2203.47 1373.97 2169.39 1373.97 2127.41V1174.36Z" fill="#90ABEA"/>
<path d="M1800.1 1174.36V2127.41C1800.1 2169.41 1766.05 2203.47 1724.04 2203.47H809.12C767.12 2203.47 733.06 2169.41 733.06 2127.41V1174.36H1800.1Z" fill="#CCD8F5"/>
<path d="M1800.1 2062.9V2127.41C1800.1 2169.41 1766.05 2203.47 1724.04 2203.47H809.12C767.12 2203.47 733.06 2169.41 733.06 2127.41V1174.36H882.56C882.56 1174.36 734.88 2107.96 1800.1 2062.9Z" fill="#B8C9F2"/>
<path d="M2450.65 1443.74H1354.88C1342.08 1443.74 1331.7 1454.12 1331.7 1466.92V1780.75C1331.7 1793.55 1342.08 1803.93 1354.88 1803.93H2450.65C2463.45 1803.93 2473.83 1793.55 2473.83 1780.75V1466.92C2473.83 1454.12 2463.45 1443.74 2450.65 1443.74Z" fill="#7093E4"/>
<path d="M1826.51 1443.74H720.27C707.407 1443.74 696.98 1454.17 696.98 1467.03V1780.64C696.98 1793.5 707.407 1803.93 720.27 1803.93H1826.51C1839.37 1803.93 1849.8 1793.5 1849.8 1780.64V1467.03C1849.8 1454.17 1839.37 1443.74 1826.51 1443.74Z" fill="#8DA9EA"/>
<path d="M1523.96 1747.71C1502.82 1725.37 1483.3 1712.02 1463.39 1712.29H1402.45L1380.61 1729.92L1378.07 1736.93C1330.8 1724.08 1293.52 1674.86 1281.13 1665.5C1270.24 1649.31 1198.69 1590.42 1215.81 1526.68L1224.64 1518.32C1257.69 1485.6 1246.81 1454.85 1212.41 1418.51C1190.01 1394.84 1173.81 1371.27 1155.67 1370.84H1094.12L1080.9 1441.47L1083.16 1443.98C1079.75 1451.39 1077.12 1458.86 1075.31 1466.25C1075.31 1466.25 1055.18 1527.01 1087.8 1596.12C1096.42 1614.39 1107.85 1630.67 1121.4 1644.98L1207.13 1735.56L1292.86 1826.14C1306.4 1840.45 1322.03 1852.76 1339.8 1862.37C1346.45 1865.97 1353.05 1869.04 1359.55 1871.67L1362.08 1876.16L1368.95 1885.84H1433.3C1454.97 1885.73 1468.79 1881.99 1468.79 1881.99C1492.75 1877.51 1518.1 1864.66 1539.76 1844.17L1557.42 1827.45C1585.6 1800.78 1554.57 1780.03 1523.98 1747.71H1523.96Z" fill="#B8C9F2"/>
<path d="M1463.08 1747.71C1428.69 1711.37 1398.58 1698.8 1364.1 1730.01L1355.27 1738.37C1290.68 1751.96 1235.81 1677.27 1220.25 1665.51C1209.36 1649.32 1137.81 1590.43 1154.93 1526.69L1163.76 1518.33C1196.81 1485.61 1185.93 1454.86 1151.53 1418.52C1120.95 1386.2 1101.93 1354.08 1073.75 1380.75L1056.09 1397.47C1034.44 1417.96 1020.22 1442.57 1014.43 1466.25C1014.43 1466.25 994.3 1527.01 1026.92 1596.12C1035.54 1614.39 1046.97 1630.67 1060.52 1644.98L1146.25 1735.56L1231.98 1826.14C1245.52 1840.45 1261.15 1852.76 1278.92 1862.37C1346.13 1898.74 1407.91 1881.99 1407.91 1881.99C1431.87 1877.51 1457.23 1864.66 1478.88 1844.17L1496.54 1827.45C1524.72 1800.78 1493.69 1780.03 1463.1 1747.71H1463.08Z" fill="#F2F5FC"/>
<path d="M1390.06 439.8H755.23C739.347 439.8 726.47 452.676 726.47 468.56V918.69C726.47 934.574 739.347 947.45 755.23 947.45H1390.06C1405.94 947.45 1418.82 934.574 1418.82 918.69V468.56C1418.82 452.676 1405.94 439.8 1390.06 439.8Z" fill="#A1B8ED"/>
<path d="M1389.33 468.55V918.69C1389.33 934.57 1376.45 947.45 1360.57 947.45H725.73C715.95 947.45 707.31 942.57 702.12 935.1C698.89 930.44 696.99 924.79 696.99 918.69V468.55C696.99 452.67 709.86 439.8 725.74 439.8H1360.58C1369.68 439.8 1377.8 444.03 1383.06 450.63C1386.99 455.54 1389.34 461.77 1389.34 468.55H1389.33Z" fill="#BECEF3"/>
<path d="M1383.05 450.63L702.12 935.1C698.89 930.44 696.99 924.79 696.99 918.69V468.55C696.99 452.67 709.86 439.8 725.74 439.8H1360.58C1369.68 439.8 1377.8 444.03 1383.06 450.63H1383.05Z" fill="#CEDAF6"/>
<path d="M1238.05 869.71V914.97C1238.05 919.87 1234.98 924.06 1230.65 925.7C1229.38 926.19 1228.01 926.45 1226.57 926.45C1220.24 926.45 1215.1 921.31 1215.1 914.97V869.71C1215.1 863.37 1220.24 858.23 1226.57 858.23C1228.01 858.23 1229.38 858.49 1230.65 858.98C1232.18 859.56 1233.55 860.46 1234.69 861.59C1236.76 863.67 1238.05 866.54 1238.05 869.71Z" fill="#567FDF"/>
<path d="M1238.05 869.71V914.97C1238.05 919.87 1234.98 924.06 1230.65 925.7C1226.32 924.06 1223.25 919.87 1223.25 914.97V869.71C1223.25 864.81 1226.32 860.62 1230.65 858.98C1232.18 859.56 1233.55 860.46 1234.69 861.59C1236.76 863.67 1238.05 866.54 1238.05 869.71Z" fill="#7395E5"/>
<path d="M1271.69 869.71V914.97C1271.69 919.87 1268.62 924.06 1264.29 925.7C1263.02 926.19 1261.65 926.45 1260.21 926.45C1253.88 926.45 1248.74 921.31 1248.74 914.97V869.71C1248.74 863.37 1253.88 858.23 1260.21 858.23C1261.65 858.23 1263.02 858.49 1264.29 858.98C1265.82 859.56 1267.19 860.46 1268.33 861.59C1270.4 863.67 1271.69 866.54 1271.69 869.71Z" fill="#567FDF"/>
<path d="M1271.69 869.71V914.97C1271.69 919.87 1268.62 924.06 1264.29 925.7C1259.96 924.06 1256.89 919.87 1256.89 914.97V869.71C1256.89 864.81 1259.96 860.62 1264.29 858.98C1265.82 859.56 1267.19 860.46 1268.33 861.59C1270.4 863.67 1271.69 866.54 1271.69 869.71Z" fill="#7395E5"/>
<path d="M1305.33 869.71V914.97C1305.33 919.87 1302.26 924.06 1297.93 925.7C1296.66 926.19 1295.29 926.45 1293.85 926.45C1287.52 926.45 1282.38 921.31 1282.38 914.97V869.71C1282.38 863.37 1287.52 858.23 1293.85 858.23C1295.29 858.23 1296.66 858.49 1297.93 858.98C1299.46 859.56 1300.83 860.46 1301.97 861.59C1304.04 863.67 1305.33 866.54 1305.33 869.71Z" fill="#567FDF"/>
<path d="M1305.33 869.71V914.97C1305.33 919.87 1302.26 924.06 1297.93 925.7C1293.6 924.06 1290.53 919.87 1290.53 914.97V869.71C1290.53 864.81 1293.6 860.62 1297.93 858.98C1299.46 859.56 1300.83 860.46 1301.97 861.59C1304.04 863.67 1305.33 866.54 1305.33 869.71Z" fill="#7395E5"/>
<path d="M1338.97 869.71V914.97C1338.97 919.87 1335.9 924.06 1331.57 925.7C1330.3 926.19 1328.93 926.45 1327.49 926.45C1321.16 926.45 1316.02 921.31 1316.02 914.97V869.71C1316.02 863.37 1321.16 858.23 1327.49 858.23C1328.93 858.23 1330.3 858.49 1331.57 858.98C1333.1 859.56 1334.47 860.46 1335.61 861.59C1337.68 863.67 1338.97 866.54 1338.97 869.71Z" fill="#567FDF"/>
<path d="M1338.97 869.71V914.97C1338.97 919.87 1335.9 924.06 1331.57 925.7C1327.24 924.06 1324.17 919.87 1324.17 914.97V869.71C1324.17 864.81 1327.24 860.62 1331.57 858.98C1333.1 859.56 1334.47 860.46 1335.61 861.59C1337.68 863.67 1338.97 866.54 1338.97 869.71Z" fill="#7395E5"/>
<path d="M928.62 618.26H1076.83C1086.65 618.26 1094.62 626.23 1094.62 636.05V1084.68H910.83V636.05C910.83 626.23 918.8 618.26 928.62 618.26Z" fill="#567FDF"/>
<path d="M910.86 618.26H1059.08C1068.9 618.26 1076.87 626.23 1076.87 636.05V1084.68H893.08V636.05C893.08 626.23 901.05 618.26 910.87 618.26H910.86Z" fill="#7395E5"/>
<path d="M2880.2 187.2H2265.77C2245.58 187.2 2229.06 203.72 2229.06 223.91V552.31L2114.18 652.21L2111.01 649.83L2090.52 657.11L2073.04 673.58H2109.52C2110.24 673.62 2110.99 673.56 2111.77 673.38L2229.06 646.5V756.48C2229.06 776.67 2245.58 793.19 2265.77 793.19H2880.2C2900.39 793.19 2916.91 776.67 2916.91 756.48V223.91C2916.91 203.72 2900.39 187.2 2880.2 187.2Z" fill="#A1B8ED"/>
<path d="M2880.43 223.91V756.48C2880.43 776.67 2863.91 793.19 2843.72 793.19H2229.29C2218.24 793.19 2208.3 788.25 2201.56 780.46C2195.97 774.01 2192.59 765.62 2192.59 756.48V646.5L2075.29 673.39C2067.53 675.17 2062.55 665.38 2068.56 660.16L2192.59 552.31V223.91C2192.59 203.72 2209.1 187.2 2229.29 187.2H2843.72C2852.35 187.2 2860.3 190.22 2866.59 195.25C2875.01 201.99 2880.43 212.35 2880.43 223.91Z" fill="#D2DDF7"/>
<path d="M2880.43 223.91V756.48C2880.43 776.67 2863.91 793.19 2843.72 793.19H2229.29C2218.24 793.19 2208.3 788.25 2201.56 780.46L2866.6 195.27V195.25C2875.01 201.99 2880.43 212.35 2880.43 223.91Z" fill="#BECEF3"/>
<path d="M2703.42 793.19H2672.42C2671.47 792.75 2670.52 792.33 2669.58 791.94L2669.74 793.19H2304.91C2314.01 779.03 2400.47 644.66 2412.68 629.19C2425.56 612.88 2491.7 587.54 2491.7 587.54C2491.7 587.54 2576.68 568.04 2644.5 601.32C2703.62 616.2 2705.25 741.93 2703.41 793.19H2703.42Z" fill="#809FE7"/>
<path d="M2614.29 499.76C2614.24 499.76 2614.23 499.81 2614.18 499.81C2612.14 501.12 2610.1 502.38 2608.12 503.42C2602.12 506.71 2596.52 508.87 2593.02 510.09C2590.61 510.91 2588.88 512.99 2588.49 515.53C2586.59 527.18 2581.6 560.5 2581.89 583.67C2559.01 606.38 2541.98 615.88 2529.46 618.53C2513.63 621.89 2498.54 610.22 2497.25 594.09L2494.6 561.03C2429.57 563.58 2429.24 441.57 2429.24 441.57L2440.14 358.85L2522.59 333.76L2588.65 437.28C2588.65 437.28 2626.99 414.31 2635.75 457.24C2639.86 477.45 2627.37 491.19 2614.29 499.76Z" fill="#C9D7F5"/>
<path d="M2495.95 578.08C2546.94 564.18 2544.34 530.14 2544.34 530.14C2526.41 558.22 2501.89 560.87 2494.6 561.09L2495.95 578.08Z" fill="#ACC1EF"/>
<path d="M2598.5 459.66C2596.47 454.07 2602.84 448.89 2607.93 451.96C2612.16 454.51 2615.68 460.02 2612.23 471.87C2605.53 494.9 2593.05 484.66 2594.07 477.64C2595.09 470.62 2601.51 467.68 2598.59 459.88C2598.56 459.8 2598.53 459.72 2598.5 459.65V459.66Z" fill="#ACC1EF"/>
<path d="M2608.12 503.42C2602.12 506.71 2596.52 508.87 2593.02 510.09C2593.02 510.09 2578.48 511.01 2576.46 497.32C2577.41 498.59 2587.66 511.6 2608.13 503.42H2608.12Z" fill="#ACC1EF"/>
<path d="M2586.7 440.7C2586.7 440.7 2557.23 467.1 2519.27 419.71C2519.27 419.71 2499.57 394.93 2494.17 378.31C2489.88 365.13 2481.1 382.03 2481.89 387.93C2481.89 387.93 2471.39 355.22 2457.35 383.66C2457.35 383.66 2453.34 389.99 2443.56 426.92L2437.13 357.22L2476.84 324.72L2552.05 322.25L2585.1 351.61L2617.19 395.95L2586.71 440.7H2586.7Z" fill="#ACC1EF"/>
<path d="M2636.07 433.38C2634.1 436.49 2631.9 439.7 2629.55 442.96C2629.55 442.96 2617.58 419.58 2588.36 439.69C2560.91 458.53 2507.05 409.9 2501.09 373.17C2500.04 366.57 2492.97 362.22 2487.13 365.57C2484.43 367.09 2481.86 370.07 2480.11 375.36C2480.11 375.36 2473.17 353.13 2457.18 374.84C2441.25 396.55 2451.52 437.4 2429.02 451.24C2411.1 462.3 2403.14 446.68 2402.09 423.39C2401.9 417.51 2402.09 411.1 2402.68 404.54C2405.65 372.04 2389.26 351.5 2416.4 334.44C2416.4 334.44 2439.42 271.08 2483.88 300.58C2483.88 300.58 2523.65 265.82 2574.99 279.7C2626.38 293.64 2632.05 333.68 2632.05 333.68C2632.05 333.68 2684.28 358.41 2636.09 433.37L2636.07 433.38Z" fill="#3B6BDA"/>
<path d="M2636.07 433.38C2634.1 436.49 2631.9 439.7 2629.55 442.96C2629.55 442.96 2617.58 419.58 2588.36 439.69C2560.91 458.53 2507.05 409.9 2501.09 373.17C2500.04 366.57 2492.97 362.22 2487.13 365.57C2484.43 367.09 2481.86 370.07 2480.11 375.36C2480.11 375.36 2473.17 353.13 2457.18 374.84C2441.25 396.55 2451.52 437.4 2429.02 451.24C2411.1 462.3 2403.14 446.68 2402.09 423.39L2402.15 423.34C2402.15 423.34 2411.26 453.12 2426.95 437.55C2442.69 421.92 2442.9 321.51 2479.26 363.17C2479.26 363.17 2497.83 335.59 2508.67 370.47C2519.51 405.35 2561.9 434.91 2581.72 423.89C2601.54 412.92 2630.34 418.36 2635.16 431.3C2635.42 431.96 2635.73 432.67 2636.09 433.39L2636.07 433.38Z" fill="#2057D5"/>
<path d="M2525.76 347.55C2525.76 347.55 2537.77 407.09 2601.01 407.13C2601.01 407.13 2555.64 391.69 2525.76 347.55Z" fill="#2057D5"/>
<path d="M2632.84 347.23C2632.84 347.23 2657.81 364.63 2634.39 411.13C2634.39 411.13 2645.35 375.18 2632.84 347.23Z" fill="#2057D5"/>
<path d="M2480.3 310.23C2480.3 310.23 2445.72 286.13 2425.08 337.4C2425.08 337.4 2440.51 304.86 2480.3 310.23Z" fill="#2057D5"/>
<path d="M2620.24 330.69C2620.24 330.69 2587.31 272.71 2508.61 303.28C2508.61 303.28 2578.4 288.32 2620.24 330.69Z" fill="#2057D5"/>
<path d="M2304.91 793.19C2304.4 793.98 2304.13 794.4 2304.13 794.4V793.19H2304.91Z" fill="#9BB3EC"/>
</svg>
