<svg
        width="302"
        height="40"
        viewBox="0 0 302 40"
        fill="none"
        xmlns="http://www.w3.org/2000/svg"
      >
        <path
          d="M22.6377 4.13223C22.6377 0.826446 19.5209 0 17.0603 0V0.495868C18.5367 0.495868 19.685 0.991735 19.685 2.14876C19.685 2.80992 19.1928 3.80165 17.7165 3.80165C16.5682 3.80165 14.1076 3.1405 12.3031 2.47934C10.1706 1.65289 8.20206 0.991736 6.56165 0.991736C3.28083 0.991736 0.984248 3.47107 0.984248 6.28099C0.984248 8.76033 2.7887 9.58678 3.44487 9.91735L3.60891 9.58678C3.28083 9.2562 2.7887 8.92562 2.7887 7.93388C2.7887 7.27273 3.44487 6.1157 5.08528 6.1157C6.56165 6.1157 8.53015 6.77686 11.1548 7.60331C13.4514 8.26446 15.912 8.76033 17.2243 8.92562V14.0496L14.7637 16.1983V16.3636L17.2243 18.5124V25.6198C15.912 26.4463 14.4356 26.6116 13.1233 26.6116C10.6627 26.6116 8.53015 25.9504 6.72569 23.9669L13.4514 20.6612V9.2562L5.24932 12.8926C5.90549 10.7438 7.70994 9.2562 9.51439 8.26446L9.35035 7.76859C4.42911 9.09091 0 13.719 0 19.3388C0 25.9504 5.41336 30.9091 11.4829 30.9091C18.0445 30.9091 22.3096 25.6198 22.3096 20.1653H21.9815C20.9973 22.314 19.5209 24.2975 17.7165 25.2893V18.5124L20.3411 16.3636V16.1983L17.7165 14.0496V8.92562C20.1771 8.92562 22.6377 7.27273 22.6377 4.13223ZM8.36611 22.314L6.39761 23.3058C5.24932 21.8182 4.59316 19.8347 4.59316 17.0248C4.59316 15.8678 4.59316 14.5455 4.92124 13.5537L8.36611 12.0661V22.314ZM25.7545 26.1157L23.6219 27.7686L23.95 28.0992L24.9343 27.2727L28.5432 30.5785L33.4644 27.2727L33.3004 26.9421L31.9881 27.7686L30.3476 26.1157V14.876L31.66 13.8843L34.4487 16.1983V26.281C34.4487 32.562 33.1363 33.5537 30.3476 34.5455V35.0413C34.9408 35.2066 39.2059 33.719 39.2059 25.6198V14.7107L40.6822 13.5537L40.3542 13.2231L39.0418 14.2149L34.9408 10.7438L30.3476 14.2149V0.661157H30.0196L24.2781 4.6281V4.95868C24.9343 5.28926 25.9185 5.61983 25.9185 7.43802L25.7545 26.1157ZM55.774 24.2975L51.673 27.438L47.572 24.1322V22.1488L55.2819 16.8595V16.6942L51.3449 10.7438L42.8148 15.3719V26.281L41.1744 27.6033L41.5024 27.9339L42.9788 26.7769L48.5562 30.9091L55.9381 24.9587L55.774 24.2975ZM47.572 21.4876V13.3884L47.9001 13.2231L51.509 19.0083L47.572 21.4876ZM87.1059 2.64463C87.1059 2.14876 86.9419 1.65289 86.7778 1.15702H86.4498C85.9576 2.47934 85.3015 3.1405 83.6611 3.1405C82.1847 3.1405 81.2004 2.31405 80.5443 1.65289L75.7871 7.10744L76.1152 7.43802L77.7556 5.95041C78.7398 6.77686 79.56 7.43802 81.8566 7.60331V21.3223L72.1782 4.6281C71.358 3.30578 70.2097 1.4876 67.9131 1.4876C65.2884 1.4876 62.9918 3.80165 63.3199 7.43802H63.8121C63.9761 6.44628 64.4682 5.28926 65.6165 5.28926C66.4367 5.28926 67.2569 6.1157 67.749 6.94215V12.3967C64.7963 12.3967 62.8278 13.719 62.8278 16.1983C62.8278 17.5207 63.484 19.5041 65.4525 20V19.6694C65.1244 19.3388 64.9603 19.0083 64.9603 18.5124C64.9603 17.6859 65.6165 17.0248 66.7648 17.0248H67.585V23.9669C64.1401 23.9669 61.3514 25.9504 61.3514 29.2562C61.3514 32.3967 63.9761 33.8843 66.9288 33.719V33.3884C65.1244 33.2231 64.3042 32.3967 64.3042 31.2397C64.3042 29.7521 65.2884 29.0909 66.6008 29.0909C67.9131 29.0909 69.0614 29.9174 69.8816 30.9091L74.6388 25.6198L74.3107 25.2893L73.1624 26.6116C71.358 24.9587 70.3737 24.4628 68.2412 24.1322V7.60331L81.3645 30.7438H82.3487V7.60331C84.8093 7.43802 87.1059 5.45455 87.1059 2.64463ZM99.0809 24.2975L94.9799 27.438L90.8789 24.1322V22.1488L98.5888 16.8595V16.6942L94.6518 10.7438L86.1217 15.3719V26.281L84.4813 27.6033L84.8093 27.9339L86.2857 26.7769L91.8631 30.9091L99.245 24.9587L99.0809 24.2975ZM90.8789 21.4876V13.3884L91.2069 13.2231L94.8159 19.0083L90.8789 21.4876ZM125.82 12.562L124.671 13.3884L121.555 10.7438L117.946 14.0496L119.422 15.5372V27.9339L115.485 25.4545V15.2066L116.797 14.3802L113.024 10.7438L109.416 14.0496L110.892 15.5372V27.438L110.4 27.7686L106.955 25.2893V15.3719C106.955 13.0579 105.807 12.3967 104.494 11.5702C103.346 10.7438 102.69 10.2479 102.69 9.09091C102.69 8.09917 103.674 7.60331 104.166 7.27273V6.94215C102.854 6.94215 99.409 8.26446 99.409 11.405C99.409 13.0579 100.229 13.719 101.049 14.5455C101.87 15.3719 102.69 16.0331 102.69 17.5207V27.1074L100.885 28.4298L101.213 28.7603L102.854 27.438L106.627 30.7438L110.728 27.9339L115.321 30.7438L124.015 25.6198V14.5455L126.148 12.8926L125.82 12.562ZM156.331 3.47107L154.691 4.95868L151.082 1.65289L145.669 5.61983V1.98347H145.177L145.341 28.7603C144.848 28.7603 143.372 28.4298 142.224 28.0992L141.896 5.78512C141.896 4.13223 140.747 1.81818 137.795 1.81818C134.842 1.81818 132.873 4.13223 132.873 6.44628H133.366C133.53 5.45455 134.022 4.6281 135.006 4.6281C135.99 4.6281 136.81 5.28926 136.81 7.43802V13.8843C133.858 14.0496 132.053 15.7025 132.053 17.8512C132.053 19.1736 132.709 21.157 134.678 21.157V20.8264C134.022 20.4959 133.858 20 133.858 19.6694C133.858 18.6777 134.678 18.3471 135.99 18.3471H136.646V28.595C134.186 29.4215 133.202 31.2397 133.202 33.2231C133.202 36.0331 135.334 38.0165 138.615 38.0165C140.911 38.0165 142.88 37.6859 144.848 37.1901C146.489 36.8595 148.621 36.3636 149.606 36.3636C150.918 36.3636 151.41 37.0248 151.41 37.8512C151.41 39.0083 150.918 39.5041 150.262 39.6694V40C152.886 39.5041 154.527 37.8512 154.527 35.3719C154.527 32.8926 152.066 31.405 149.442 31.405C148.129 31.405 145.341 31.9008 143.372 32.2314C141.076 32.7273 138.779 33.0578 138.123 33.0578C136.974 33.0578 135.662 32.562 135.662 30.9091C135.662 29.5868 136.81 28.4298 139.599 28.4298C141.076 28.4298 142.88 28.595 144.684 29.0909C146.653 29.5868 148.457 30.0826 150.098 30.0826C152.558 30.0826 154.691 29.2562 154.691 25.7851V5.45455L156.659 3.80165L156.331 3.47107ZM149.606 13.5537C149.114 14.0496 148.457 14.5455 147.637 14.5455C146.817 14.5455 145.997 14.0496 145.669 13.5537V6.28099L147.309 5.12397L149.606 7.27273V13.5537ZM149.606 18.5124C149.278 18.1818 148.457 17.6859 147.637 17.6859C146.817 17.6859 145.997 18.1818 145.669 18.5124V14.2149C145.997 14.5455 146.817 15.0413 147.637 15.0413C148.457 15.0413 149.278 14.5455 149.606 14.2149V18.5124ZM149.606 26.281C149.606 27.6033 148.785 28.9256 146.981 28.9256H145.669V19.1736C145.997 18.843 146.817 18.3471 147.637 18.3471C148.457 18.3471 149.114 18.843 149.606 19.1736V26.281ZM172.079 14.5455L166.83 10.7438L158.792 15.3719V26.1157L157.152 27.438L157.316 27.7686L158.628 26.7769L163.877 30.7438L172.079 25.7851V14.5455ZM163.221 24.9587V13.0579L167.322 16.0331V27.7686L163.221 24.9587ZM187.663 11.0744H187.335C186.843 11.405 186.351 11.7355 185.859 11.7355C185.203 11.7355 184.382 11.405 184.054 10.9091H183.726L180.938 14.0496L178.149 10.9091L173.228 14.2149L173.392 14.5455L174.704 13.719L176.344 15.5372V25.9504L174.212 27.6033L174.54 27.9339L175.524 27.1074L179.461 30.4132L184.546 26.9421L184.382 26.6116L182.906 27.438L180.938 25.7851V14.2149C181.758 15.0413 182.742 15.8678 183.89 15.8678C186.187 16.0331 187.499 13.719 187.663 11.0744ZM207.348 26.9421L201.771 30.7438L194.225 19.1736L199.638 10.7438H199.966C200.622 11.405 201.607 12.0661 202.755 12.0661C203.903 12.0661 204.724 11.405 205.216 10.7438H205.544C205.38 14.0496 203.083 16.0331 201.443 16.0331C199.802 16.0331 198.982 15.2066 197.998 14.7107L197.506 15.5372L205.708 27.7686L207.348 26.7769V26.9421ZM189.304 26.1157L187.171 27.7686L187.499 28.0992L188.483 27.2727L192.092 30.5785L197.014 27.2727L196.686 26.9421L195.373 27.7686L193.733 26.1157V0.661157H193.569L187.663 4.6281V4.95868C188.319 5.28926 189.304 5.45455 189.304 7.43802V26.1157ZM234.579 4.13223C234.579 0.826446 231.462 0 229.002 0V0.495868C230.478 0.495868 231.626 0.991735 231.626 2.14876C231.626 2.80992 231.134 3.80165 229.658 3.80165C228.51 3.80165 226.049 3.1405 224.244 2.47934C222.112 1.81818 220.143 1.15702 218.503 1.15702C215.222 1.15702 212.926 3.63636 212.926 6.44628C212.926 8.92562 214.73 9.75207 215.386 10.0826L215.55 9.75207C215.058 9.42149 214.566 9.09091 214.566 8.09917C214.566 7.43802 215.222 6.28099 216.863 6.28099C218.339 6.28099 220.307 6.94215 222.932 7.76859C225.229 8.42975 227.689 8.92562 229.002 9.09091V14.2149L226.541 16.3636V16.5289L229.002 18.6777V25.7851C227.689 26.6116 226.213 26.7769 224.901 26.7769C222.44 26.7769 220.307 26.1157 218.503 24.1322L225.229 20.8264V9.2562L217.027 12.8926C217.847 10.7438 219.651 9.2562 221.292 8.09917L221.128 7.76859C216.206 9.09091 211.777 13.5537 211.777 19.1736C211.777 25.7851 217.191 30.7438 223.26 30.7438C229.822 30.7438 234.087 25.4545 234.087 20H233.759C232.775 22.1488 231.298 24.1322 229.494 25.124V18.3471L232.118 16.1983V16.0331L229.658 13.8843V8.92562C232.118 8.92562 234.579 7.27273 234.579 4.13223ZM220.307 22.314L218.339 23.3058C217.191 21.8182 216.534 19.8347 216.534 17.0248C216.534 15.8678 216.699 14.5455 217.027 13.5537L220.471 12.0661L220.307 22.314ZM240.32 2.47934H240.156L236.876 5.28926V5.45455L239.664 8.59504H239.992L243.273 5.78512V5.61983L240.32 2.47934ZM245.242 26.9421L243.929 27.7686L242.289 26.1157V14.7107L243.929 13.5537L243.601 13.2231L242.453 14.2149L239.5 10.7438L234.743 14.0496L235.071 14.5455L236.219 13.719L237.696 15.5372V26.281L235.563 27.9339L235.727 28.2645L236.876 27.438L240.485 30.7438L245.406 27.438L245.242 26.9421ZM272.637 26.7769L271.488 27.6033L269.684 25.9504V14.7107L271.324 13.3884L270.996 13.0579L269.684 14.2149L265.911 10.7438L260.99 14.2149L257.217 10.7438L252.624 14.2149L249.671 10.7438L244.914 14.0496L245.078 14.5455L246.226 13.719L247.866 15.5372V26.281L246.554 27.6033L250.327 30.7438L253.936 27.438L252.46 25.9504V14.7107L253.936 13.719L256.397 16.0331V25.9504L255.084 27.2727L258.857 30.4132L262.466 27.1074L260.99 25.6198V14.7107L262.302 13.8843L264.927 16.1983V26.1157L263.778 27.2727L267.551 30.7438L272.637 27.2727V26.7769ZM286.908 24.2975L282.807 27.438L278.706 24.1322V22.1488L286.416 16.8595V16.6942L282.479 10.7438L273.949 15.3719V26.6116L279.69 30.7438L287.072 24.7934L286.908 24.2975ZM278.706 21.4876V13.3884L279.034 13.2231L282.643 19.0083L278.706 21.4876ZM301.836 20L298.719 17.5207C300.852 15.7025 301.672 13.2231 301.672 11.5702V10.5785H301.344C301.016 11.405 300.36 12.2314 299.047 12.2314C297.735 12.2314 296.915 11.5702 296.095 10.5785L288.713 14.7107V20.6612L291.501 22.8099C288.713 25.2893 288.221 26.9421 288.221 28.2645C288.221 29.9174 289.041 31.0744 290.353 31.5702L290.517 31.2397C290.189 30.9091 289.861 30.7438 289.861 29.9174C289.861 29.4215 290.517 28.595 291.829 28.595C293.47 28.595 294.454 29.7521 294.946 30.2479L302 25.9504V20H301.836ZM300.031 15.0413C298.883 17.0248 296.423 19.0083 294.946 20L293.142 18.5124V12.7273C293.798 14.3802 295.602 15.7025 297.407 15.7025C298.555 15.7025 299.211 15.5372 300.031 15.0413ZM297.243 28.2645C296.423 26.4463 294.454 25.124 292.486 25.124C291.993 25.124 290.681 25.124 289.369 25.9504C290.189 24.6281 292.322 22.314 295.11 20.6612L297.079 22.314L297.243 28.2645Z"
          fill="black"
        />
      </svg>