<svg
        width="186"
        height="40"
        viewBox="0 0 186 40"
        fill="none"
        xmlns="http://www.w3.org/2000/svg"
      >
        <path
          d="M151.505 40H141.076V39.7336C143.712 38.7441 145.201 37.9829 145.201 34.6717V9.55281C145.201 4.6432 144.705 3.19696 141.305 1.44624V1.17983H150.932L163.652 31.2084L176.221 1.17983H185.618V1.44624C182.142 3.19696 181.607 4.6432 181.607 9.55281V34.6717C181.607 37.7926 182.715 38.7821 186 39.7336V40H171.751V39.7336C174.807 38.7441 175.915 37.7926 175.915 34.6717V7.19315L161.666 39.6575H161.093L146.959 6.66032L147.226 34.7098C147.303 38.0209 148.678 38.8582 151.543 39.7716V40H151.505ZM122.587 1.44624V1.17983H136.415V1.44624C132.748 2.51189 132.481 3.38725 132.481 10.0856V31.0181C132.481 37.7926 132.672 38.6299 136.415 39.7336V40H122.587V39.7336C126.33 38.6299 126.521 37.7926 126.521 31.0181V10.0856C126.559 3.38725 126.292 2.51189 122.587 1.44624ZM94.0505 40H84.4239V39.7336C86.8688 38.8582 87.671 37.7926 89.772 34.7479L99.0166 21.4653L90.0012 6.7745C88.2058 3.84396 86.8688 2.77831 83.7363 1.44624V1.17983H98.8638V1.44624C95.464 2.3216 94.8527 3.19695 96.9156 6.54615L102.99 16.4415L109.102 6.39391C111.126 3.1589 110.974 2.16936 107.039 1.40818V1.17983H117.391V1.44624C114.755 2.3216 113.648 3.23501 111.508 6.43197L103.715 17.6974L114.144 34.5956C115.901 37.4501 117.391 38.5918 120.333 39.6955V39.9619H105.129V39.6955C108.758 38.8202 109.293 38.0971 107.153 34.5956L99.7807 22.6832L92.1023 34.7479C90.0776 37.9448 90.0776 38.9724 94.0505 39.7336V40ZM63.1078 9.47669L57.6833 24.9286H68.7998L63.1078 9.47669ZM10.4288 40H0V39.7336C2.63586 38.7441 4.12569 37.9829 4.12569 34.6717V9.55281C4.12569 4.6432 3.62908 3.19696 0.229206 1.44624V1.17983H9.85582L22.5767 31.2084L35.1448 1.17983H44.5422V1.44624C41.0659 3.19696 40.5311 4.6432 40.5311 9.55281V34.6717C40.5311 37.7926 41.6389 38.7821 44.9242 39.7336V40H30.6753V39.7336C33.7314 38.7441 34.8392 37.7926 34.8392 34.6717V7.19315L20.5903 39.6955H20.0173L5.84473 6.66032L6.11214 34.7098C6.18854 38.0209 7.56377 38.8582 10.4288 39.7716V40ZM57.1867 40H47.1781V39.7336C49.8903 39.0485 50.7307 38.2873 52.106 34.6337L65.0561 0H65.6291L78.6174 34.3292C79.878 37.5642 80.4128 38.9343 82.7813 39.7336V40H69.3728V39.7336C73.1928 38.8963 73.8041 38.2873 72.4288 34.6337L69.3728 26.451H57.1103L54.2452 34.6337C52.9464 38.2873 53.4048 38.9343 57.1867 39.7336V40Z"
          fill="black"
        />
      </svg>