<svg
        width="296"
        height="25"
        viewBox="0 0 296 25"
        fill="none"
        xmlns="http://www.w3.org/2000/svg"
      >
        <path
          d="M294.421 21.5663C293.56 21.5663 292.842 22.2819 292.842 23.2478C292.842 24.2131 293.56 24.9288 294.421 24.9288C295.282 24.9288 296 24.2131 296 23.2478C296 22.2819 295.282 21.5663 294.421 21.5663ZM237.295 24.821H244.543V24.1775L243.755 23.9985C243.037 23.8195 242.713 23.4263 242.713 22.4244V12.6968H244.4C245.441 12.6968 245.979 12.9471 246.05 15.129L246.23 19.7067C246.373 23.8195 247.558 24.9644 249.568 24.9644C251.613 24.9644 252.151 23.5692 252.151 21.6024V20.7794H251.397V21.3873C251.397 22.7112 251.218 23.6409 250.715 23.6409C250.249 23.6409 250.213 23.2834 250.105 21.638L249.89 18.4911C249.603 14.2705 249.065 12.8041 245.943 12.2315C248.921 11.4451 250.751 9.26313 250.751 6.15135C250.751 2.10983 247.558 0.178555 244.508 0.178555H232.272V0.822462L232.954 0.965417C234.245 1.25173 234.281 1.93128 234.281 4.82838V19.0628C234.281 22.2463 233.384 23.7839 231.338 23.7839C229.509 23.7839 228.504 22.8897 228.504 19.4204V2.50347C228.504 1.50197 228.826 1.2161 229.616 1.0371L230.585 0.822462V0.178555H223.086V0.822462L223.874 1.0371C224.592 1.25173 224.843 1.53805 224.843 2.53907V19.1701C224.843 22.9253 227.033 25 230.37 25C233.707 25 235.357 22.9253 235.357 19.0628V3.54057C235.357 1.60929 235.753 0.92978 237.33 0.92978C238.587 0.92978 239.126 1.35905 239.126 2.53907V22.4243C239.126 23.4263 238.803 23.7839 238.085 23.9629L237.295 24.1775V24.821ZM285.45 2.5391C285.45 1.53809 285.774 1.21613 286.491 1.07273L287.46 0.858099V0.178555H279.996V0.822462L280.785 1.0371C281.503 1.25173 281.826 1.53809 281.826 2.5391V22.5682C281.826 23.5336 281.432 24.0702 280.319 24.0702C279.027 24.0702 278.847 23.6409 278.381 21.5311L273.789 0.107318H272.353L267.976 20.8511C267.473 23.1756 267.222 23.7126 266.253 23.9985L265.642 24.1775V24.821H270.774V24.1775L270.021 24.0341C268.944 23.8195 268.657 23.2478 269.195 20.5292L271.779 7.26017L274.613 21.316C275.044 23.3546 275.009 23.7483 273.465 24.0341L272.712 24.1775V24.821H291.73V16.6667H291.048C290.689 20.4219 289.936 23.9629 286.886 23.9629H285.45V2.5391ZM274.255 18.1687V17.2032H269.41L269.267 18.1687H274.255ZM254.232 2.96838V20.0643C254.232 22.6395 254.232 23.8556 252.94 24.0702L252.294 24.1775V24.821H257.569V24.1775C255.273 23.8556 255.273 23.0687 255.273 20.2789V4.04155L254.412 3.25469L263.203 24.821H264.71V4.9357C264.71 2.00296 264.71 1.35905 266.145 0.965417L266.648 0.822462V0.178555H261.229V0.822462L261.839 0.965417C263.669 1.28737 263.669 2.00296 263.669 4.72106V17.1672L264.028 17.0598L257.354 0.178555H252.222V0.822462L252.725 0.965417C253.3 1.14442 253.622 1.78832 254.232 2.96838ZM242.713 1.0371H244.149C245.584 1.0371 246.912 1.96688 246.912 6.6167C246.912 11.3734 245.907 11.8383 243.898 11.8383H242.713V1.0371ZM218.816 12.2675C218.816 22.6034 217.954 24.0702 216.088 24.0702C214.223 24.0702 213.397 22.6034 213.397 12.3388C213.397 2.39615 214.294 0.965417 216.088 0.965417C217.954 0.965417 218.816 2.39615 218.816 12.2675ZM222.727 12.4822C222.727 5.65084 220.538 0 216.088 0C211.603 0 209.485 5.65084 209.485 12.4822C209.485 19.3492 211.675 25 216.088 25C220.646 25 222.727 19.3492 222.727 12.4822ZM207.369 2.5391C207.369 1.53809 207.62 1.21613 208.337 1.0371L209.127 0.822462V0.178555H201.699V0.822462L202.596 1.0371C203.313 1.21613 203.709 1.46637 203.709 2.50347V19.7067C203.709 22.1029 203.493 24.0341 201.699 24.0341C200.551 24.0341 199.69 23.14 199.726 22.4965C199.833 21.3873 201.699 21.4594 201.843 19.6706C201.95 18.3833 201.125 17.8467 200.371 17.7398C199.259 17.5964 197.896 18.5262 197.859 20.3863C197.823 22.7824 199.402 24.9644 202.094 24.9644C205.072 24.9644 207.369 22.9614 207.369 19.134V2.5391ZM87.5189 2.5391C87.5189 1.53809 87.8419 1.21613 88.5594 1.07273L89.5284 0.858099V0.178555H82.0648V0.822462L82.8542 1.0371C83.5717 1.25173 83.8947 1.53809 83.8947 2.5391V22.5682C83.8947 23.5336 83.4998 24.0702 82.3873 24.0702C81.0957 24.0702 80.8804 23.6409 80.4139 21.5311L75.8208 0.107318H74.3858L70.0079 20.8511C69.5058 23.1756 69.2542 23.7126 68.2857 23.9985L67.6754 24.1775V24.821H72.8069V24.1775L72.0532 24.0341C70.977 23.8195 70.6897 23.2478 71.2281 20.5292L73.8117 7.18845L76.6464 21.316C77.0409 23.3546 77.0409 23.7483 75.4982 24.0341L74.7445 24.1775V24.821H93.7986V16.6667H93.1168C92.7581 20.4219 92.0043 23.9629 88.9543 23.9629H87.5189V2.5391ZM187.417 1.0371H188.207C190.432 1.0371 191.186 4.57766 191.437 8.33335H192.118V0.178555H179.093V8.33331H179.774C180.026 4.57766 180.78 1.0371 183.004 1.0371H183.793V22.4243C183.793 23.4263 183.471 23.7839 182.753 23.9629L181.82 24.1775V24.821H189.571V24.1775L188.458 23.9273C187.776 23.7482 187.417 23.5336 187.417 22.4243V1.0371ZM171.019 12.4461L172.131 12.4822C173.746 12.5178 174.212 13.1261 174.536 17.0247H175.217V7.08161H174.536C174.141 10.1933 173.71 11.5163 172.167 11.5524L171.019 11.588V1.03714H173.495C176.258 1.03714 176.868 4.50646 177.263 8.33335H177.944V0.178592H165.565V0.822499L166.354 1.03714C167.179 1.25177 167.395 1.75272 167.395 2.57519V22.4244C167.395 23.4263 167.072 23.7839 166.354 23.9629L165.565 24.1775V24.821H178.303V16.6667H177.621C177.191 20.3863 176.724 23.9629 173.495 23.9629H171.019V12.4461ZM157.491 12.4461L158.603 12.4822C160.218 12.5178 160.684 13.1261 161.008 17.0247H161.689V7.08161H161.008C160.613 10.1933 160.182 11.5163 158.64 11.5524L157.491 11.588V1.03714H159.967C162.73 1.03714 163.34 4.5777 163.735 8.33335H164.416V0.178592H151.678V0.822499L152.826 1.03714C153.652 1.25177 153.867 1.75272 153.867 2.57519V22.4244C153.867 23.4263 153.544 23.7839 152.826 23.9629L152.037 24.1775V24.821H164.775V16.6667H164.094C163.663 20.3863 163.196 23.9629 159.967 23.9629H157.491V12.4461ZM142.743 1.0371H143.82C145.255 1.0371 146.582 1.96688 146.582 6.6167C146.582 11.3017 145.578 11.8383 143.569 11.8383H142.743V1.0371ZM137.325 24.821H144.573V24.1775L143.783 23.9985C143.066 23.8195 142.743 23.4263 142.743 22.4244V12.6968H144.071C145.111 12.6968 145.65 13.1261 145.721 15.129L145.901 19.7067C146.045 23.8195 147.228 24.9644 149.238 24.9644C151.283 24.9644 151.821 23.5692 151.821 21.6024V20.7794H151.068V21.3872C151.068 22.7111 150.889 23.6409 150.386 23.6409C149.92 23.6409 149.884 23.2834 149.776 21.638L149.561 18.4911C149.274 14.1632 148.7 12.8041 145.614 12.2315C148.592 11.4451 150.422 9.26309 150.422 6.15135C150.422 2.1098 147.228 0.178555 144.178 0.178555H137.325V0.822462L138.114 1.0371C138.832 1.25173 139.155 1.53805 139.155 2.53907V22.4243C139.155 23.4263 138.832 23.7839 138.114 23.9629L137.325 24.1775V24.821ZM131.835 1.0371H132.624C134.849 1.0371 135.602 4.57766 135.854 8.33335H136.535V0.178555H123.51V8.33331H124.191C124.443 4.57766 125.196 1.0371 127.421 1.0371H128.211V22.4243C128.211 23.4263 127.887 23.7839 127.17 23.9629L126.237 24.1775V24.821H133.808V24.1775L132.875 23.9629C131.942 23.7482 131.835 23.0331 131.835 22.4243V1.0371ZM123.545 18.4189C123.545 11.087 115.472 9.15581 115.472 3.82692C115.472 2.6825 115.903 0.965417 117.696 0.965417C120.28 0.965417 121.249 4.29179 121.68 8.33335H122.362V0.178555H121.931C121.751 0.96538 121.428 1.32341 120.962 1.32341C120.137 1.32341 119.706 0.0355999 117.733 0.0355999C114.683 0.0355999 112.601 2.57515 112.601 5.90108C112.601 11.9456 120.675 14.4847 120.675 20.0643C120.675 22.6034 119.491 24.0341 117.876 24.0341C115.472 24.0341 113.893 21.2092 113.462 16.6667H112.781V24.821H113.211C113.57 23.6409 114.037 23.5336 114.431 23.5336C115.113 23.5336 115.831 24.9644 117.912 24.9644C121.106 24.9644 123.545 22.2106 123.545 18.4189ZM100.042 2.53907C100.042 1.53805 100.365 1.2161 101.083 1.0727L102.052 0.858062V0.178555H94.588V0.822462L95.3774 1.0371C96.0949 1.25173 96.4179 1.53805 96.4179 2.53907V22.4243C96.4179 23.4263 96.0949 23.7839 95.3774 23.9629L94.588 24.1775V24.821H106.322V16.6667H105.64C105.281 20.4219 104.528 23.9629 101.478 23.9629H100.042V2.53907ZM76.2872 18.1686V17.2032H71.4434L71.2995 18.1686H76.2872ZM55.5471 24.8926H57.0183L60.3551 7.29621H59.853L63.5129 24.8926H64.8049L69.1827 4.14884C69.6492 1.96688 69.9003 1.2161 70.7616 1.00102L71.4434 0.822462V0.178555H66.3838V0.822462L67.1375 0.96538C68.2137 1.18002 68.4648 1.82392 67.9627 4.47035L65.1279 18.3833H65.5586L62.6877 3.71956C62.4004 2.32443 62.2213 1.18002 63.4056 0.96538L64.1946 0.822462V0.178555H57.2693V0.822462L57.7358 0.92978C58.4537 1.10833 58.5614 1.53805 58.8482 2.8971L59.9607 8.22599L59.7453 5.00694L57.2693 18.0257H57.5923L54.6857 3.71956C54.3627 2.25319 54.255 1.14442 55.4032 0.92978L55.942 0.822462V0.178555H48.8729V0.822462L49.5546 1.00102C50.2002 1.18002 50.5594 1.50197 50.9901 3.46885L55.5471 24.8926ZM36.3854 12.4461L37.4978 12.4822C39.1124 12.5178 39.5788 13.1261 39.9018 17.0247H40.5836V7.08158H39.9018C39.5073 10.1934 39.0766 11.5163 37.5335 11.5524L36.3854 11.588V1.0371H38.8613C41.6241 1.0371 42.2344 4.57766 42.6289 8.33335H43.3106V0.178555H30.9313V0.822462L31.7207 1.0371C32.5459 1.25173 32.7612 1.75272 32.7612 2.57519V22.4244C32.7612 23.4263 32.4382 23.7839 31.7207 23.9629L30.9313 24.1775V24.821H43.6699V16.6667H42.9876C42.5574 20.3863 42.091 23.9629 38.8613 23.9629H36.3854V12.4461ZM13.8148 24.821H21.1708V24.1775L20.3456 23.9985C19.6996 23.8555 19.2689 23.4263 19.2689 22.4243V12.6612H24.6873V22.4243C24.6873 23.4263 24.257 23.8555 23.611 23.9985L22.7858 24.1775V24.821H30.1418V24.1775L29.3524 23.9629C28.6349 23.7839 28.3114 23.3902 28.3114 22.3892V2.53907C28.3114 1.53805 28.6349 1.2161 29.3524 1.0371L30.1418 0.822462V0.178555H22.7858V0.822462L23.611 1.0371C24.2208 1.2161 24.6873 1.46637 24.6873 2.50347V11.6953H19.2689V2.50347C19.2689 1.50197 19.6639 1.2161 20.3456 1.0371L21.1708 0.822462V0.178555H13.8148V0.822462L14.6043 1.0371C15.3222 1.25173 15.6448 1.53805 15.6448 2.53907V22.4243C15.6448 23.4263 15.3222 23.7839 14.6043 23.9629L13.8148 24.1775V24.821ZM8.32452 1.0371H9.11442C11.3389 1.0371 12.0926 4.57766 12.3436 8.33331H13.0254V0.178555H0V8.33331H0.681743C0.932839 4.57766 1.68654 1.0371 3.91094 1.0371H4.70039V22.4243C4.70039 23.4263 4.37783 23.7839 3.65988 23.9629L2.72705 24.1775V24.821H10.4779V24.1775L9.36552 23.9273C8.68374 23.7482 8.32452 23.5336 8.32452 22.4243V1.0371Z"
          fill="#1C1C21"
        />
      </svg>