<svg
        width="182"
        height="58"
        viewBox="0 0 182 58"
        fill="none"
        xmlns="http://www.w3.org/2000/svg"
      >
        <path
          d="M112.455 0.0380804C106.341 0.343631 100.795 2.4376 96.288 4.43525C95.0164 4.99902 92.8237 6.64736 91.608 6.69796C90.1756 6.75917 87.5661 5.31487 85.6301 4.75682C77.0661 2.29201 64.0361 -0.914992 57.3638 4.27263C48.9838 3.05716 41.2586 5.13572 34.9127 7.01953C34.5543 2.00544 29.8715 -0.997425 24.4135 0.557261C20.7621 1.59542 17.7663 3.65663 14.0771 5.08237C6.85161 7.86987 -0.446505 13.807 0.0213593 23.1712C0.243151 27.5762 2.16001 31.1616 3.41516 34.3134C4.72469 37.6015 6.09625 40.2244 8.26184 44.0067C7.66624 45.1187 7.13635 45.8257 6.96791 47.0751C5.56442 57.5723 19.5919 57.9171 26.9975 54.8274C33.3853 52.1581 40.0799 47.4335 44.6059 44.0067C40.9747 59.5501 65.3882 60.2368 71.5782 52.4061C80.2826 58.9099 99.0947 58.1884 108.403 52.7276C116.998 59.6507 136.066 57.0135 147.652 54.3431C153.645 52.962 158.929 51.8491 162.839 49.016C166.842 46.1104 169.347 41.6609 170.425 35.9329C169.604 33.7381 168.201 32.1341 166.873 30.4391C167.534 29.0482 167.726 26.5243 167.361 24.6239C172.425 20.9977 176.642 15.3492 180.444 10.5722C180.897 9.99984 181.764 9.25193 181.567 8.4724C164.241 5.77294 147.532 0.387806 127.464 1.367C126.197 1.42719 124.763 1.79405 123.586 1.68856C121.857 1.53247 120.367 0.673666 118.743 0.398416C116.596 0.0327754 114.493 -0.0637358 112.455 0.0380804Z"
          fill="black"
        />
        <path
          d="M113.518 6.40634C105.68 6.56386 98.3526 10.4705 92.5774 13.6394C86.4194 17.0177 80.9221 20.9858 77.0673 24.9452C78.4609 22.5704 79.9417 20.223 81.5924 18.0032C83.2661 15.7493 85.1295 13.7105 86.6017 11.7026C83.3821 10.8609 80.1535 9.96909 76.9058 9.2776C72.2897 8.29545 65.871 6.66751 62.0472 8.79341C60.9411 9.40757 60.0374 10.9195 58.9785 11.055C58.105 11.1691 56.6621 10.5335 55.5852 10.4134C51.6384 9.9745 48.0089 10.3373 44.4427 11.0551C41.1023 11.7243 34.0384 12.9136 33.1348 16.0624C32.5546 18.0837 33.8456 20.0411 33.6189 22.0401C33.3971 24.0074 31.5092 26.6062 30.5504 28.1753C29.3766 30.0979 28.1829 31.8024 26.1886 32.6964C24.9799 26.6788 26.2937 21.332 27.3184 16.2277C27.9517 13.083 29.2288 9.86432 28.1294 6.6972C25.0504 6.26902 22.4578 8.7068 19.4078 9.92512C13.6789 12.2188 7.29774 14.3057 6.488 20.9083C6.03177 24.6256 7.4271 26.9934 8.42476 29.6339C10.5624 35.3066 13.2032 40.106 16.3393 44.4906C15.484 46.0615 13.4702 46.4718 13.2667 48.6869C14.1782 49.9779 16.0801 50.1435 17.9553 50.1435C23.3753 50.1317 27.8184 47.4024 31.8436 45.1341C40.6092 40.2041 46.4969 32.6104 52.68 25.4295C53.7658 24.1674 54.6601 22.6479 56.0734 21.8807C57.4622 28.2605 54.761 31.6685 52.8394 36.8968C52.0993 38.9114 49.7606 45.2167 50.9007 48.2027C52.147 51.488 62.7805 51.6307 65.5999 49.4999C67.02 48.4276 67.5894 45.9985 68.3516 44.4906C69.3242 42.5506 70.1641 40.8747 70.932 39.1603C70.9757 46.2356 76.2327 48.3136 81.9152 49.8207C93.995 53.014 106.172 47.3096 112.76 43.3628C111.937 48.6046 113.978 49.1289 118.096 49.9841C128.749 52.1827 139.473 49.6464 148.137 47.559C156.079 45.6472 162.468 44.2937 163.645 36.4126C162.374 35.3133 159.195 35.4494 157.02 35.769C150.615 36.7065 144.413 39.9455 135.862 39.3217C134.303 39.2075 130.935 38.6639 130.692 37.7098C130.317 36.2173 132.985 35.1736 135.221 34.8006C141.629 33.7158 150.894 34.8117 156.051 32.8599C158.531 31.9253 161.516 29.2265 161.216 26.2385C161.019 24.2209 158.389 23.1657 155.89 23.0126C148.822 22.5699 143.77 26.6929 136.351 25.2701C137.279 24.0971 137.445 22.1696 138.61 21.2331C144.034 21.1198 149.304 22.1993 154.437 21.8807C161.575 21.4341 165.602 18.4273 168.977 14.4503C169.338 14.0214 170.244 13.5589 169.945 12.8343C157.548 10.9488 140.646 5.95205 125.363 7.82504C123.385 8.06417 121.964 10.1298 120.665 10.9434C120.667 10.926 120.683 10.9201 120.677 10.8936C120.925 9.79046 121.392 8.91298 121.486 7.66568C118.799 6.71903 116.13 6.35523 113.518 6.40828V6.40634ZM119.549 14.287C121.059 16.0081 124.364 15.9341 126.33 17.1961C123.676 17.878 120.334 17.8745 117.929 18.8081C118.496 17.3274 119.005 15.7901 119.549 14.287ZM100.809 20.2608C100.015 23.8843 98.3522 28.0333 97.4194 32.0509C102.554 32.1234 107.969 31.0792 113.249 30.7616C113.962 29.8067 114.313 28.4902 114.703 27.2089C115.761 28.7082 116.507 31.5099 115.512 33.6668C107.494 33.5554 101.729 40.1185 93.8667 40.1287C90.344 40.1327 87.353 38.1046 89.0207 34.151C91.3755 28.5722 97.2135 24.6754 100.809 20.2608Z"
          fill="white"
        />
      </svg>