<svg
        width="256"
        height="47"
        viewBox="0 0 256 47"
        fill="none"
        xmlns="http://www.w3.org/2000/svg"
      >
        <path
          d="M22.8425 10.5682C22.8425 6.79365 20.2597 4.41185 16.8563 4.41185C16.0617 4.41185 14.0394 4.43781 13.3346 4.51569L10.9742 19.1193C11.4047 19.1582 12.1472 19.1193 12.54 19.1193C18.1464 19.1193 22.8425 15.4746 22.8425 10.5682ZM64.7027 1.54849L59.995 30.2223C59.7999 31.393 59.7869 31.8616 62.0172 31.8616L61.4554 35.5323H57.5825C59.7088 36.5097 61.7818 38.0322 61.7818 40.0363C61.7818 43.8758 58 46.9338 48.089 46.9338C29.7403 46.9338 17.6262 37.5896 13.4646 23.5441H10.2173L8.80887 32.3834C8.54747 34.0747 8.57348 34.6224 11.5867 34.8171L13.661 34.9599L12.8131 39.2809C9.81285 39.0979 6.50049 38.9408 3.20114 38.9551C0.202207 38.9551 -2.95409 39.1109 -5.92701 39.2809L-5.22215 34.9599C-4.43925 34.921 -3.90475 34.921 -3.39626 34.8677C-2.92548 34.8288 -2.4612 34.7328 -2.01383 34.5822C-1.17892 34.3213 -0.501359 33.7878 -0.31929 32.7079L4.1544 5.77863C2.87976 6.00253 1.63041 6.35166 0.424592 6.82091C-0.566384 7.2103 -1.64969 8.10851 -1.64969 8.83797C-1.64969 9.15079 -1.58337 9.38442 -1.45332 9.5934C-1.28426 9.853 -1.07488 10.0879 -1.07488 10.4384C-1.07488 10.685 -1.17892 10.8291 -1.30897 10.9991C-1.96051 11.7805 -3.42227 12.4035 -4.79168 12.4035C-5.21295 12.4037 -5.63011 12.321 -6.01936 12.1603C-6.4086 11.9995 -6.76229 11.7637 -7.06023 11.4665C-7.35816 11.1693 -7.59451 10.8163 -7.75576 10.4279C-7.91701 10.0395 -8 9.62315 -8 9.20271L-8 9.16377C-8 4.12629 -1.68741 2.10793 2.35452 1.31486C6.89886 0.48543 11.506 0.0455403 16.1254 0C25.45 0 32.2177 2.90229 32.2177 10.2437C32.2177 16.2832 27.6283 20.1875 22.7111 21.8529C26.454 33.5036 35.5951 42.2494 47.3321 42.2494C51.7928 42.2494 53.3572 40.3491 53.3572 38.4878C53.3814 37.729 53.1027 36.9916 52.5822 36.4378C52.0618 35.8841 51.3423 35.5593 50.582 35.5349L50.4493 35.5336H48.5974L49.3023 31.8629C50.6067 31.8629 52.0411 31.7461 52.2622 30.4066L55.6136 9.7232C55.6656 9.35976 55.5226 9.20401 55.1441 9.20401H52.0268L52.6407 5.924L64.3256 1.17338L64.704 1.56407L64.7027 1.54849ZM233.582 31.8603L232.879 35.531H220.308L220.921 31.8603C222.85 31.8603 223.125 31.6916 223.373 30.0392L224.741 21.0066C224.978 19.4581 224.038 18.9363 223.139 18.9363C221.313 18.9363 219.424 20.8365 219.096 23.0236L217.962 30.3508C217.793 31.393 217.962 31.8603 220.127 31.8603L219.554 35.531H206.8L207.451 31.8603C209.758 31.8603 210.15 31.5228 210.372 30.1171L211.885 20.8106C211.989 20.159 211.885 20.0694 211.365 20.0694H208.585L209.159 16.8673L220.543 11.9856L220.884 12.3114L220.363 15.1747C222.449 13.3264 224.757 12.0245 227.379 12.0245C230.652 12.0245 232.843 15.0956 232.843 18.3769C232.843 19.1453 232.777 19.7683 232.607 20.8625L231.096 30.0263C230.834 31.5618 231.109 31.8473 233.599 31.8473L233.582 31.8603ZM187.495 13.1187L185.331 17.7136C184.506 17.3808 183.626 17.2043 182.735 17.1931H180.155L178.407 27.8664C178.094 29.7809 178.458 30.1184 179.45 30.1184C180.519 30.1184 181.616 29.5707 183.585 27.7756L185.281 31.1062C182.946 33.5788 179.973 36.1826 176.191 36.1826C172.174 36.1826 170.4 33.8917 170.4 30.2599C170.4 29.4915 170.533 28.4492 170.637 27.7223L172.332 17.1918L169.373 17.2437L170.076 13.2096L172.893 13.2485L173.559 8.97945L181.332 5.82925L181.852 6.34974L180.757 13.1564L187.499 13.1044V13.1187H187.495ZM172.004 1.60041C171.007 5.04513 170.206 8.5431 169.603 12.0777H165.079C165.496 10.5812 165.626 9.64402 165.639 8.8237C165.68 6.87023 163.449 5.63455 160.138 5.63455C156.748 5.63455 154.478 7.36606 154.438 9.53888C154.4 11.5962 155.182 12.4555 157.791 14.2895L162.302 17.4787C166.501 20.4458 169.031 23.2196 168.952 28.0079C168.81 35.9606 162.054 39.9831 153.408 39.9831C151.387 39.9831 149.704 39.6586 148.322 39.3328C147.149 39.046 146.015 38.6812 144.788 38.6812C143.867 38.7014 142.964 38.9422 142.155 39.3834L141.451 38.994C140.88 35.137 140.184 31.2995 139.364 27.4874L144.085 26.3556C145.324 32.1861 148.036 34.8677 153.919 34.8677C157.779 34.8677 159.853 32.9948 159.905 29.9873C159.957 27.098 158.458 25.9013 155.718 24.1049C154.511 23.3415 153.316 22.5605 152.132 21.762C150.989 21.0191 149.919 20.169 148.937 19.2231C147.906 18.1731 147.106 16.9201 146.587 15.5441C146.069 14.1681 145.843 12.6993 145.925 11.2315C146.029 4.98426 151.637 0.558133 159.239 0.558133C162.42 0.558133 164.9 1.3525 167.768 1.50826C168.72 1.5472 170.325 1.33822 171.342 1.07862L171.995 1.59912H172.004V1.60041ZM90.6411 5.40091C90.6411 8.35512 87.4328 10.9446 84.0944 10.9446C82.3986 10.9446 80.4296 10.2294 80.4296 7.84761C80.4296 4.30671 84.0294 1.92491 87.0153 1.92491C88.9855 1.92621 90.6411 3.24107 90.6411 5.40091ZM89.8855 12.3127L87.0166 29.7005C86.6915 31.6539 86.6512 31.8603 89.468 31.8603L88.8945 35.531H75.7621L76.3226 31.8603C78.488 31.8603 79.1135 31.3411 79.2969 30.169L80.7573 20.6678C80.8354 20.1213 80.8484 20.0694 80.2878 20.0694H77.2759L77.8377 16.8673L89.5617 11.9856L89.8855 12.3127ZM78.2136 1.40572L73.5968 29.5577C73.2574 31.6539 73.4798 31.8603 75.5788 31.8603L75.0052 35.518H62.1993L62.7728 31.8603C65.0162 31.8603 65.5767 31.432 65.8251 29.8432L69.0334 9.95554C69.1374 9.30525 69.0594 9.21439 68.5639 9.21439H65.5897L66.1632 5.96034L77.8871 1.0916L78.2136 1.4174V1.40572ZM248.514 19.1712C248.448 17.0893 247.601 16.4909 246.388 16.4909C245.006 16.4909 243.038 18.1835 242.294 21.9567L248.514 19.1712ZM256 20.3031L241.682 26.8761C241.981 29.3228 243.35 30.9621 245.593 30.9621C247.941 30.9621 248.75 29.6473 248.75 29.0359C248.751 28.7703 248.669 28.5111 248.514 28.2948C248.331 28.0352 248.188 27.8794 248.188 27.5406C248.174 27.3335 248.24 27.1289 248.371 26.9682C248.782 26.5323 249.28 26.1867 249.832 25.9536C250.385 25.7205 250.98 25.605 251.58 25.6144C253.249 25.6144 254.736 26.8644 254.736 28.7646C254.736 32.8909 250.68 36.2358 244.329 36.2358C238.07 36.2358 233.596 32.4483 233.596 25.2769C233.596 18.861 239.334 11.9363 246.493 11.9363C252.493 11.935 255.101 14.9411 256 20.3031ZM200.054 20.2511C200.054 17.6617 199.207 16.4909 197.668 16.4909C195.424 16.4909 192.999 21.2285 192.999 27.9573C192.999 30.5338 193.873 31.6669 195.398 31.6669C197.772 31.6669 200.067 26.1998 200.067 20.2511M208.204 22.1384C208.204 29.1943 203.119 36.2748 195.034 36.2748C188.879 36.2748 184.953 32.6949 184.953 25.5625C184.953 18.2873 190.456 11.8441 198.046 11.8441C203.953 11.8441 208.217 15.5667 208.217 22.1267M128.968 39.1511C128.968 38.6176 128.472 38.2542 127.324 38.2542C126.008 38.2542 124.678 38.4359 123.321 38.4359C121.258 38.5136 119.205 38.0984 117.335 37.2249C116.422 37.9414 115.875 38.7617 115.875 39.9455C115.875 41.4693 117.869 42.718 120.074 42.718C125.905 42.7167 128.968 40.5957 128.968 39.1511ZM130.287 18.6105C130.287 17.3099 129.777 16.1638 128.721 16.1638C126.321 16.1638 125.29 20.6029 125.29 23.2573C125.29 25.1056 125.682 25.887 126.947 25.887C129.059 25.887 130.285 21.0455 130.285 18.5975M144.983 14.7594C144.983 16.256 143.653 18.0913 142.375 18.0913C141.957 18.0913 141.813 17.7928 141.592 17.4787C141.45 17.2824 141.249 17.1368 141.018 17.0633C140.839 16.9952 140.648 16.9596 140.456 16.9582C139.087 16.9582 138.109 18.5067 138.109 19.8747L138.148 20.8119C138.126 22.2937 137.703 23.7421 136.923 25.0031C135.898 26.6079 134.485 27.9304 132.815 28.8492C131.145 29.7681 129.27 30.254 127.363 30.2625C125.912 30.313 124.464 30.1056 123.086 29.6498C122.849 29.9071 122.71 30.2393 122.694 30.5883C122.694 31.5501 123.464 31.7591 124.637 31.7591C127.077 31.7591 129.254 31.3943 131.509 31.3943C135.37 31.3943 138.147 33.2946 138.147 36.8472C138.147 43.1593 128.496 47 119.499 47C114.153 47 109.001 45.4632 109.001 40.9345C109.001 38.6955 110.306 36.9523 113.24 35.5323H102.598L103.212 31.8616C105.351 31.8097 105.559 31.6552 105.754 30.3014L107.163 20.917C107.346 19.7579 106.563 18.9389 105.572 18.9389C103.72 18.9389 101.829 21.0209 101.568 22.7004L100.343 30.4585C100.185 31.4203 100.395 31.8629 102.416 31.8629L101.842 35.5336H89.6501L90.2626 31.8629C92.3759 31.8629 92.4397 31.5514 92.61 30.4585L94.1758 20.7742C94.2799 20.1239 94.1758 20.072 93.7063 20.072H90.6814L91.2939 16.818L102.979 11.9882L103.305 12.314L102.836 15.1384C105.183 13.1083 107.583 11.9882 109.709 11.9882C113.439 11.9882 115.263 15.4642 115.263 18.652C115.263 19.0038 115.172 19.876 115.133 20.2148L113.53 30.2236C113.335 31.4346 114.181 31.785 115.356 31.8629C115.942 29.6382 117.599 28.4804 119.555 27.686C118.817 26.9303 118.24 26.0331 117.859 25.0486C117.478 24.0641 117.3 23.0127 117.338 21.958C117.338 15.6199 123.062 11.7545 128.878 11.7545C131.526 11.7545 134.812 12.6398 136.638 15.411C137.957 13.1083 139.847 11.7545 141.814 11.7545C143.575 11.7545 144.97 12.8734 144.97 14.749M43.6946 20.2511C43.6946 17.6617 42.8337 16.4909 41.2952 16.4909C39.0518 16.4909 36.6394 21.2285 36.6394 27.9573C36.6394 30.5338 37.5133 31.6799 39.0388 31.6799C41.4122 31.6799 43.6946 26.2128 43.6946 20.2511ZM51.8448 22.1384C51.8448 29.1943 46.7585 36.2748 38.6604 36.2748C32.5182 36.2748 28.5803 32.6949 28.5803 25.5625C28.5803 18.2873 34.0839 11.8441 41.6736 11.8441C47.5948 11.8441 51.8461 15.5667 51.8461 22.1267"
          fill="#D32531"
        />
      </svg>