<svg
        width="273"
        height="41"
        viewBox="0 0 273 41"
        fill="none"
        xmlns="http://www.w3.org/2000/svg"
      >
        <path
          d="M252.668 23.85C252.668 20.9303 262.716 19.9531 262.716 19.9531L262.574 17.033C261.109 16.9928 255.389 17.2033 255.389 15.6694C255.389 13.6668 264.141 13.1789 267.209 13.0701L266.579 8.39766C261.293 8.41224 237.541 8.47611 236.569 14.9181C236.044 18.3961 242.883 19.2176 242.883 19.2176L242.881 19.3815C242.881 19.3815 233.927 21.0402 233.927 25.384C233.927 34.2465 264.813 31.7648 272.808 29.5595C272.808 29.5595 272.033 25.6234 271.681 25.4406C271.362 25.2755 264.878 26.2361 259.733 26.0982C255.549 25.9853 252.668 25.3169 252.668 23.85ZM188.316 4.35777C188.316 6.87217 185.564 8.6505 180.748 8.6505C176.017 8.6505 173.176 6.91066 173.176 4.35777C173.176 1.50916 177.341 0 180.745 0C184.052 0 188.316 1.47125 188.316 4.35777ZM232.054 25.2493C231.671 25.1215 228.885 25.7494 225.768 24.6666C220.78 22.9341 220.015 16.2302 225.937 12.4005L220.395 7.69776C210.618 11.4737 208.606 11.7426 207.691 11.9523C207.237 10.6201 205.115 8.38279 200.615 8.65109C198.167 8.79748 194.529 10.1745 193.477 12.6825C192.768 14.3725 193.198 16.2701 194.842 17.567C197.211 19.436 201.734 18.9703 201.734 18.9703C200.311 24.9501 187.907 29.0404 187.907 22.6313V11.6347H173.176V24.4059C173.176 30.7861 180.988 32.4367 188.66 31.9293C199.393 31.2194 205.431 25.046 207.631 18.3821L212.868 17.1706C212.868 17.1706 205.701 26.5313 214.643 30.7881C219.745 33.2168 229.127 31.3451 232.898 29.3312C232.898 29.3312 232.272 25.3222 232.054 25.2493ZM198.401 13.705C198.498 12.1095 202.456 11.7 202.696 13.546C202.696 13.546 198.296 15.4279 198.401 13.705ZM171.55 26.3338C171.416 26.1918 168.886 26.8238 167.053 26.3752C165.03 25.8798 164.898 24.3621 164.898 22.3441L164.899 11.5466L149.728 11.5498V21.7398C149.728 22.9413 149.829 25.8669 145.573 25.8669C143.659 25.8669 141.475 25.7057 141.475 22.9413V11.5466H126.39L126.403 24.5292C126.403 31.9307 138.792 34.194 151.52 29.3621C151.52 29.3621 157.478 34.0815 172.376 30.6111C172.376 30.6111 171.725 26.5181 171.55 26.3338ZM122.021 37.9744L122.015 11.3524L108.21 11.3545C108.21 11.3545 108.678 20.9577 107.952 22.8241C106.718 26.8812 96.7702 26.305 96.7725 21.5748C96.776 16.0759 106.903 17.0213 106.903 17.0213L105.889 11.3425C105.889 11.3425 82.4751 9.15881 81.3536 21.7013C81.1025 30.4437 96.6425 34.0879 108.134 29.7849L108.129 40.1671L122.021 37.9744Z"
          fill="black"
        />
        <path
          d="M77.0806 25.2013C78.4692 23.7875 78.3857 22.0681 77.2075 20.1953C75.4679 17.4304 70.6636 15.8113 69.5156 13.6168C69.0116 12.6524 69.0308 11.5071 69.7801 10.0968L69.5212 8.93879L53.3101 10.7335C52.3504 12.9002 53.3293 14.5899 53.4 14.7888C41.6895 27.3561 22.6989 27.4699 22.1935 23.0407C21.7191 18.8864 34.7033 17.9687 34.7033 17.9687L34.449 13.8279C34.449 13.8279 25.7034 14.5173 25.5719 11.8198C25.4366 9.03824 33.6179 8.13886 38.3611 8.08404L37.1506 1.4058C21.7916 1.23783 7.43538 4.62885 6.11659 10.4433C5.72084 12.1875 6.88307 15.2557 13.2183 16.5354V16.7585C13.2183 16.7585 -0.090328 18.864 0.000462419 24.651C0.080777 29.7994 11.5599 32.0857 19.6659 32.1429C36.0911 32.2578 44.7502 26.8023 44.7502 26.8023C42.4549 33.0953 60.4389 33.8553 72.9243 29.3389C73.5186 29.124 78.3165 31.1712 81.2302 32.4622C81.2302 32.4622 83.094 27.9881 82.8447 27.3792C82.6177 26.8251 77.0806 25.2013 77.0806 25.2013ZM61.0346 26.8744C59.4181 28.8703 53.0881 28.851 53.5322 27.5445C54.01 26.1389 60.2896 26.4909 61.0346 26.8744ZM48.8535 24.7373C48.8535 24.7373 52.6586 22.3227 56.5698 18.8859C56.5698 18.8859 59.9387 20.8581 61.4804 23.2034C61.4804 23.2034 56.1095 22.1809 48.8535 24.7373Z"
          fill="black"
        />
      </svg>