<svg
        width="169"
        height="43"
        viewBox="0 0 169 43"
        fill="none"
        xmlns="http://www.w3.org/2000/svg"
      >
        <path
          d="M49.2903 0.186972C39.4404 0.257127 31.3833 11.1463 31.3833 20.6442C31.3833 30.6392 37.2895 42.8315 49.2903 42.7919C61.2911 42.7524 67.5199 29.6263 67.5199 20.6443C67.5199 10.7228 59.1402 0.116926 49.2903 0.186972ZM49.2903 0.559591C57.5343 0.559591 59.7585 9.61607 59.7585 20.6442C59.7585 35.1957 57.0755 42.3747 49.2903 42.361C41.5051 42.3473 38.9724 36.4717 38.9724 20.6442C38.9724 10.7296 41.0462 0.559591 49.2903 0.559591ZM70.7724 20.9128C70.7282 10.1056 79.4241 0.532566 86.7851 0.0574703C89.444 -0.129832 92.8618 1.08124 94.8572 1.94406C96.3061 2.57061 99.2638 1.66366 99.7891 0H100.076V14.7213H99.7891C99.7891 14.0938 97.0482 0.427663 86.7851 0.427663C79.2044 0.427663 78.4721 13.6863 78.4721 20.9127C78.4721 28.1389 78.6928 42.4447 87.5392 42.4447C91.8246 42.4447 94.9967 40.5798 95.819 36.8069V25.3353H92.222V24.8466H106.165V25.3353H102.726V42.1069H102.446C102.446 42.1069 101.887 39.6869 99.0498 39.6951C95.4239 39.7054 92.0043 42.8389 87.8359 42.8007C76.8121 42.6998 70.8166 31.72 70.7724 20.9128ZM4.34131 1.63708H0V1.15172H15.208V1.63708H11.3927L22.2592 30.9902C25.6571 20.5844 28.2896 12.8925 31.832 1.63708H28.0582V1.15172H36.0882V1.63708H32.4314L19.2243 42.5904L4.34131 1.63708ZM108.294 32.5639L108.225 1.58998H104.093V1.12602H119.317V1.58998H115.187L115.279 35.5512C116.193 39.4401 117.819 42.3908 123.372 42.4348C128.926 42.4787 132.701 39.1671 134.104 34.6414V1.58986H129.377V1.1397H168.068L168.149 16.0084H167.777C167.059 6.40822 163.335 2.77997 156.822 1.72157C154.581 1.35734 152.23 1.62737 149.257 1.60432V20.5808C151.846 20.7797 154.603 20.617 156.461 19.0296C158.15 17.5862 158.628 14.2513 158.752 12.8965H159.079V29.4192H158.725C158.623 29.4192 158.487 25.2728 156.461 23.3057C154.421 21.3257 151.824 20.8389 149.257 21.3106V41.5817C152.883 41.5817 155.773 41.8871 158.282 41.2028C165.911 39.1224 168.596 32.7207 168.576 26.3001H169V42.0615H138.651V41.5817H142.083V1.58998H134.669V34.6414C133.829 37.8038 130.757 43.0356 122.886 42.9998C115.568 42.9666 108.31 39.6849 108.294 32.5639Z"
          fill="black"
        />
      </svg>