<svg
        width="268"
        height="30"
        viewBox="0 0 258 30"
        fill="none"
        xmlns="http://www.w3.org/2000/svg"
      >
        <path
          d="M24.6232 0.830198H28.5924V12.1029H38.7537V0.830198H41.7704V28.615H38.7537V13.6906H28.5924V28.615H24.6232V0.830198ZM68.6819 28.6944H70.9047V6.38716L88.4488 29.0913V0.909583H86.3054V19.0094L72.0955 0.909583H68.6819V28.6944ZM92.1799 28.6944H108.533L110.597 24.487C110.597 24.487 107.739 26.7891 102.182 26.7891H96.4667V13.9288H100.595C102.897 13.9288 103.85 15.3577 103.85 15.3577V11.2297C103.056 12.0235 102.738 12.2617 100.595 12.2617H96.4667V2.49729H98.9277C102.103 2.49729 103.77 4.16437 103.77 4.16437L102.341 0.909583H92.1799V28.6944ZM233.089 28.6944H244.044L246.505 25.3602C246.505 25.3602 244.599 26.8685 239.757 26.8685H237.058V13.77H241.583C243.885 13.77 244.361 14.7226 244.361 14.7226V11.4678C243.726 12.1029 243.25 12.2617 241.583 12.2617H237.058V2.49729H240.789C244.282 2.49729 245.87 4.16437 245.87 4.16437L244.441 0.909583H233.168L233.089 28.6944ZM45.5015 28.615H56.4566L58.9176 25.2808C58.9176 25.2808 57.0123 26.7891 52.1698 26.7891H49.4707V13.77H53.9957C56.2978 13.77 56.7742 14.7226 56.7742 14.7226V11.3884C56.1391 12.0235 55.6628 12.1823 53.9957 12.1823H49.4707V2.4179H53.2018C56.6948 2.4179 58.2825 4.08499 58.2825 4.08499L56.8535 0.830198H45.5809L45.5015 28.615ZM13.3505 2.65606H16.8434C20.5745 2.65606 22.2416 4.32314 22.2416 4.32314L20.7333 0.909583H2.31594L0.807617 4.32314C0.807617 4.32314 2.47471 2.65606 6.20581 2.65606H9.53999V28.615H13.5092L13.3505 2.65606ZM117.504 28.9325L121.711 19.8033L125.998 28.8532L138.382 0.830198H135.921L126.951 21.2322L123.934 14.6432L129.809 0.830198H127.744L122.823 11.706L117.663 0.830198H113.535L120.6 16.9454L118.695 21.2322L109.486 0.830198H105.199L117.504 28.9325ZM161.324 15.0401C161.324 22.5023 167.199 29.9646 177.122 29.9646C187.045 29.9646 192.285 23.8519 192.285 14.2463C192.285 6.78408 186.49 0.036346 176.884 0.036346C167.596 -0.0430392 161.324 6.62531 161.324 15.0401ZM176.725 1.54466C184.267 1.54466 188.157 8.8481 188.157 14.5638C188.157 21.7085 185.061 27.9799 177.44 27.9799C169.104 27.9799 165.452 20.8353 165.452 14.3257C165.452 5.75208 171.486 1.54466 176.725 1.54466ZM195.539 28.6944H199.588V2.4179H201.414C202.446 2.4179 204.986 3.05298 204.986 7.2604C204.986 11.706 201.335 12.4998 201.335 12.4998V13.0555C203.081 13.0555 205.224 13.2143 205.224 21.1528C205.224 26.6304 207.13 29.0119 209.67 29.0119C212.21 29.0119 213.322 27.2655 213.48 27.0273L212.925 26.6304C212.687 27.0273 211.972 27.6624 211.02 27.6624C209.829 27.6624 208.479 25.6778 208.479 20.4383C208.479 15.1195 207.05 13.2143 203.081 12.5792C205.224 11.8647 208.479 10.7533 208.479 6.46654C208.479 2.81483 205.621 0.830198 202.208 0.830198H195.698L195.539 28.6944ZM248.251 28.6944H252.3V2.4179H254.126C255.158 2.4179 257.698 3.05298 257.698 7.2604C257.698 11.706 254.046 12.4998 254.046 12.4998V13.0555C255.793 13.0555 257.936 13.2143 257.936 21.1528C257.936 26.6304 259.841 29.0119 262.382 29.0119C264.922 29.0119 266.033 27.2655 266.192 27.0273L265.637 26.6304C265.398 27.0273 264.684 27.6624 263.731 27.6624C262.541 27.6624 261.191 25.6778 261.191 20.4383C261.191 15.1195 259.762 13.2143 255.793 12.5792C257.936 11.8647 261.191 10.7533 261.191 6.46654C261.191 2.81483 258.333 0.830198 254.92 0.830198H248.41L248.251 28.6944ZM226.579 19.4857C226.579 13.1349 225.229 10.1976 221.26 9.48318L228.961 0.909583H226.341L219.037 9.08626V0.909583H215.068L214.989 28.6944H219.037V10.3564H219.911C220.625 10.3564 222.213 11.309 222.61 12.6586C223.165 14.3257 223.324 16.866 223.324 20.2002V21.3116C223.324 26.7891 225.229 29.1707 227.77 29.1707C230.31 29.1707 231.422 27.4242 231.58 27.1861L231.025 26.7891C230.786 27.1861 230.072 27.8212 229.119 27.8212C227.929 27.8212 226.579 25.8365 226.579 20.5971V19.4857ZM155.609 28.6944V14.3257L163.309 0.909583H160.769L153.386 13.6906L146.003 0.909583H143.463L151.163 14.3257V28.6944H155.609Z"
          fill="black"
        />
      </svg>